<svg xmlns="http://www.w3.org/2000/svg" width="21" height="20" viewBox="0 0 21 20" fill="none">
  <g clip-path="url(#clip0_23_269)">
    <path d="M10.9193 13.5156C11.2428 13.5156 11.5052 13.2533 11.5052 12.9297V10.5859C11.5052 10.2624 11.243 10 10.9193 10H9.74741C9.42385 10 9.16147 10.2623 9.16147 10.5859V12.9297C9.16147 13.2532 9.42381 13.5156 9.74741 13.5156H10.9193Z" fill="#8CE339"/>
    <path d="M18.5755 3.55469H14.4349C14.4349 3.43668 14.4349 2.85074 14.4349 2.96875C14.4349 1.99945 13.6464 1.21094 12.6771 1.21094C12.5499 1.21094 7.81557 1.21094 7.98959 1.21094C7.0203 1.21094 6.23178 1.99941 6.23178 2.96875C6.23178 3.08676 6.23178 3.6727 6.23178 3.55469H2.09116C1.12186 3.55469 0.333344 4.34316 0.333344 5.3125C0.333344 6.46004 0.473969 7.465 0.753187 8.32145C1.03241 9.17789 1.45026 9.88586 2.00475 10.4395C2.93784 11.3713 4.12635 11.7578 5.46088 11.7578H7.98959C7.98959 11.6398 7.98959 10.4679 7.98959 10.5859C7.98959 9.61664 8.77807 8.82813 9.74741 8.82813C9.86541 8.82813 11.0373 8.82813 10.9193 8.82813C11.8886 8.82813 12.6771 9.6166 12.6771 10.5859C12.6771 10.7039 12.6771 11.8758 12.6771 11.7578H13.979C15.1454 11.7093 17.0533 12.064 18.6614 10.4635C19.2161 9.91129 19.6341 9.20207 19.9134 8.3416C20.1928 7.48113 20.3333 6.46949 20.3333 5.3125C20.3333 4.3432 19.5449 3.55469 18.5755 3.55469ZM7.40366 2.96875C7.40366 2.64547 7.66627 2.38281 7.98959 2.38281H12.6771C13.0004 2.38281 13.263 2.64543 13.263 2.96875C13.263 3.08676 13.263 3.6727 13.263 3.55469H7.40366C7.40366 3.43668 7.40366 2.85074 7.40366 2.96875Z" fill="#8CE339"/>
    <path d="M13.995 12.9297H12.6771C12.6771 13.899 11.8886 14.6875 10.9193 14.6875C10.8013 14.6875 9.6294 14.6875 9.74741 14.6875C8.77811 14.6875 7.98959 13.899 7.98959 12.9297C7.85573 12.9297 5.32131 12.9297 5.466 12.9297C3.79475 12.9297 2.32682 12.4169 1.17674 11.2686C0.851859 10.9443 0.574437 10.5791 0.333344 10.1885V18.2031C0.333344 18.527 0.595414 18.7891 0.919281 18.7891H19.7474C20.0713 18.7891 20.3333 18.527 20.3333 18.2031V10.2126C20.089 10.6091 19.8105 10.9734 19.4882 11.2943C17.6393 13.1335 15.6703 12.8505 13.995 12.9297Z" fill="#8CE339"/>
  </g>
  <defs>
    <clipPath id="clip0_23_269">
      <rect width="20" height="20" fill="white" transform="translate(0.333344)"/>
    </clipPath>
  </defs>
</svg>