<svg xmlns="http://www.w3.org/2000/svg" width="33" height="32" viewBox="0 0 33 32" fill="none">
  <path d="M29.1789 20.1687L30.7842 21.0956C31.2326 21.3544 31.3863 21.9278 31.1274 22.3762L29.2524 25.6238C28.9935 26.0722 28.4201 26.2259 27.9717 25.9669L26.3663 25.0401L19.146 29.2087V31.0625C19.146 31.5802 18.7263 32 18.2085 32H14.4585C13.9408 32 13.521 31.5802 13.521 31.0625V29.2087L6.30073 25.0401L4.69535 25.9669C4.24698 26.2258 3.6736 26.0722 3.41466 25.6238L1.53966 22.3762C1.28079 21.9278 1.43441 21.3544 1.88279 21.0956L3.48816 20.1687V11.8313L1.88279 10.9044C1.43441 10.6456 1.28079 10.0722 1.53966 9.62381L3.41466 6.37619C3.67354 5.92781 4.24691 5.77413 4.69535 6.03306L6.30073 6.95994L13.521 2.79125V0.9375C13.521 0.41975 13.9408 0 14.4585 0H18.2085C18.7263 0 19.146 0.41975 19.146 0.9375V2.79125L26.3664 6.95994L27.9717 6.03306C28.4201 5.77419 28.9935 5.92781 29.2524 6.37619L31.1274 9.62381C31.3863 10.0722 31.2327 10.6456 30.7843 10.9044L29.1789 11.8313V20.1687H29.1789Z" fill="#80E142"/>
  <path d="M14.1459 16.7812H14.7653C15.1298 16.7812 15.4644 16.9913 15.615 17.3233C15.9804 18.1294 16.7848 18.6562 17.6848 18.6562H18.8334C20.1258 18.6562 21.1772 19.7076 21.1772 21C21.1772 22.2924 20.1258 23.3438 18.8334 23.3438H14.1459C12.3367 23.3438 10.8647 21.8718 10.8647 20.0625C10.8647 18.2532 12.3367 16.7812 14.1459 16.7812ZM21.3334 9.28125C19.3518 9.28125 17.7397 10.8934 17.7397 12.875C17.7397 14.8566 19.3518 16.4688 21.3334 16.4688C23.315 16.4688 24.9272 14.8566 24.9272 12.875C24.9272 10.8934 23.315 9.28125 21.3334 9.28125ZM25.7463 21.0379C26.1125 20.6718 26.1125 20.0783 25.7463 19.7121L24.4963 18.4621C24.1302 18.096 23.5367 18.096 23.1705 18.4621C22.8044 18.8283 22.8044 19.4218 23.1705 19.7879L24.4205 21.0379C24.7866 21.4041 25.3802 21.4041 25.7463 21.0379ZM8.24635 18.5379L9.49635 17.2879C9.86247 16.9218 9.86247 16.3282 9.49635 15.9621C9.13022 15.596 8.53666 15.596 8.17054 15.9621L6.92054 17.2121C6.55441 17.5783 6.55441 18.1718 6.92054 18.5379C7.2866 18.9041 7.88022 18.9041 8.24635 18.5379ZM11.3334 9.90625C10.041 9.90625 8.98966 10.9577 8.98966 12.25C8.98966 13.5423 10.041 14.5938 11.3334 14.5938C12.6258 14.5938 13.6772 13.5423 13.6772 12.25C13.6772 10.9577 12.6258 9.90625 11.3334 9.90625ZM17.8959 7.25C17.8959 6.73225 17.4762 6.3125 16.9584 6.3125H15.0834C14.5657 6.3125 14.1459 6.73225 14.1459 7.25C14.1459 7.76775 14.5657 8.1875 15.0834 8.1875H16.9584C17.4762 8.1875 17.8959 7.76775 17.8959 7.25Z" fill="#163300"/>
</svg>