<svg xmlns="http://www.w3.org/2000/svg" width="21" height="20" viewBox="0 0 21 20" fill="none">
  <path d="M15.4205 14.1354C15.012 14.204 14.7365 14.5908 14.8051 14.9993C14.8737 15.4078 15.2605 15.6833 15.669 15.6147L15.4205 14.1354ZM14.5127 9.56866C14.0985 9.56866 13.7627 9.90445 13.7627 10.3187C13.7627 10.7329 14.0985 11.0687 14.5127 11.0687V9.56866ZM13.7437 8.48556C14.9277 8.48556 15.8871 7.52552 15.8871 6.34168H14.3871C14.3871 6.69749 14.0988 6.98556 13.7437 6.98556V8.48556ZM11.6002 6.34168C11.6002 7.52552 12.5596 8.48556 13.7437 8.48556V6.98556C13.3885 6.98556 13.1002 6.69749 13.1002 6.34168H11.6002ZM13.7437 4.1978C12.5596 4.1978 11.6002 5.15785 11.6002 6.34168H13.1002C13.1002 5.98588 13.3885 5.6978 13.7437 5.6978V4.1978ZM15.8871 6.34168C15.8871 5.15785 14.9277 4.1978 13.7437 4.1978V5.6978C14.0988 5.6978 14.3871 5.98588 14.3871 6.34168H15.8871ZM17.0833 12.6368C17.0833 12.9994 16.9683 13.301 16.7404 13.5402C16.5057 13.7863 16.0974 14.0217 15.4205 14.1354L15.669 15.6147C16.5768 15.4622 17.3127 15.1138 17.8262 14.5751C18.3463 14.0294 18.5833 13.3449 18.5833 12.6368H17.0833ZM14.5127 11.0687C15.2951 11.0687 15.9711 11.2913 16.4314 11.6126C16.8942 11.9357 17.0833 12.3095 17.0833 12.6368H18.5833C18.5833 11.6838 18.0291 10.8986 17.2901 10.3826C16.5485 9.86498 15.5642 9.56866 14.5127 9.56866V11.0687ZM8.96879 6.19115C8.96879 7.09469 8.3713 7.60893 7.7432 7.60893V9.10893C9.29727 9.10893 10.4688 7.82208 10.4688 6.19115H8.96879ZM7.7432 7.60893C7.1151 7.60893 6.51761 7.09469 6.51761 6.19115H5.01761C5.01761 7.82208 6.18913 9.10893 7.7432 9.10893V7.60893ZM6.51761 6.19115C6.51761 5.73996 6.67064 5.43443 6.86916 5.24135C7.07231 5.04377 7.37197 4.91669 7.7432 4.91669V3.41669C7.02334 3.41669 6.33521 3.66821 5.82334 4.16606C5.30684 4.6684 5.01761 5.37511 5.01761 6.19115H6.51761ZM7.7432 4.91669C8.11443 4.91669 8.41409 5.04377 8.61724 5.24135C8.81576 5.43443 8.96879 5.73996 8.96879 6.19115H10.4688C10.4688 5.37511 10.1796 4.6684 9.66306 4.16606C9.15119 3.66821 8.46306 3.41669 7.7432 3.41669V4.91669ZM12.1419 13.4732C12.1419 13.7729 11.988 14.1418 11.345 14.4771C10.6772 14.8252 9.557 15.0834 7.86262 15.0834V16.5834C9.6735 16.5834 11.068 16.3131 12.0385 15.8071C13.0338 15.2882 13.6419 14.477 13.6419 13.4732H12.1419ZM7.86262 15.0834C6.16824 15.0834 5.04807 14.8252 4.38025 14.4771C3.73725 14.1418 3.58334 13.7729 3.58334 13.4732H2.08334C2.08334 14.477 2.69145 15.2882 3.68678 15.8071C4.65728 16.3131 6.05175 16.5834 7.86262 16.5834V15.0834ZM3.58334 13.4732C3.58334 13.2838 3.77567 12.8819 4.625 12.4834C5.41482 12.1127 6.55868 11.8631 7.86262 11.8631V10.3631C6.38897 10.3631 5.01819 10.6419 3.98777 11.1254C3.01686 11.5811 2.08334 12.3593 2.08334 13.4732H3.58334ZM7.86262 11.8631C9.16656 11.8631 10.3104 12.1127 11.1002 12.4834C11.9496 12.8819 12.1419 13.2838 12.1419 13.4732H13.6419C13.6419 12.3593 12.7084 11.5811 11.7375 11.1254C10.7071 10.6419 9.33627 10.3631 7.86262 10.3631V11.8631Z" fill="#8CE339"/>
</svg>