<svg xmlns="http://www.w3.org/2000/svg" width="24" height="24" viewBox="0 0 24 24" fill="none">
  <path d="M5.6867 3.6001H18.0407V6.0571H21.5537L20.8175 8.5147H20.1941V18.4567C20.5067 18.4567 20.7605 18.7063 20.7605 19.0147V19.6849H20.8739C21.1871 19.6849 21.4409 19.9351 21.4409 20.2435V20.9137H15.0935V20.2435C15.0935 19.9351 15.3473 19.6849 15.6605 19.6849H15.7739V19.0147C15.7739 18.7465 15.9659 18.5227 16.2215 18.4687L16.2095 12.9829C16.0091 10.7911 14.1401 9.0733 11.8637 9.0733C9.5873 9.0733 7.7183 10.7911 7.5179 12.9829L7.5059 18.4639C7.8083 18.5083 8.1803 18.7381 8.1803 19.0147V19.6849H8.2937C8.6063 19.6849 8.8601 19.9351 8.8601 20.2435V20.9137H2.5133V20.2435C2.5133 19.9351 2.7671 19.6849 3.0797 19.6849H3.1931V19.0147C3.1931 18.7063 3.4469 18.4567 3.7601 18.4567V8.5147H3.1367L2.3999 6.0571H5.6867V3.6001Z" fill="white"/>
</svg>