<svg xmlns="http://www.w3.org/2000/svg" width="249" height="249" viewBox="0 0 249 249" fill="none">
  <g opacity="0.5">
    <path d="M242.116 116.203L224.187 127.169L206.14 116.203L224.07 105.238L242.116 116.203Z" stroke="#CBDBF4" stroke-width="1.80842" stroke-miterlimit="10" stroke-linecap="round" stroke-linejoin="round"/>
    <path d="M163.393 104.505L185.945 90.7123L208.645 104.505" stroke="#CBDBF4" stroke-width="1.80842" stroke-miterlimit="10" stroke-linecap="round" stroke-linejoin="round"/>
    <path d="M242.117 92.2914L242.066 111.46L224.136 122.426L224.188 103.257L242.117 92.2914Z" fill="#E22525"/>
    <path d="M224.188 103.257L224.136 122.426L206.089 111.46L206.141 92.2914L224.188 103.257Z" fill="#F04343"/>
    <path d="M242.117 92.2914L224.188 103.257L206.141 92.2914L224.07 81.3259L242.117 92.2914Z" fill="#FF6161"/>
    <path d="M217.734 192.969L129.926 246.653C127.005 248.462 122.243 248.436 119.297 246.653L30.9249 192.969C27.9793 191.186 27.9547 188.267 30.9003 186.484L118.683 132.8C121.604 130.992 126.391 130.992 129.337 132.8L217.685 186.484C220.631 188.267 220.655 191.186 217.734 192.969Z" stroke="#CBDBF4" stroke-width="1.80842" stroke-miterlimit="10"/>
    <path d="M76.9204 130.64L76.9152 135.941L53.4656 150.283L53.4707 144.981L76.9204 130.64Z" fill="#BBCFEF"/>
    <path d="M53.471 144.981L53.4658 150.283L17.0752 128.172L17.0804 122.87L53.471 144.981Z" fill="#CBDBF4"/>
    <path d="M76.9209 130.64L53.4712 144.981L17.0806 122.87L40.5302 108.528L76.9209 130.64Z" fill="#EBF2FF"/>
    <path d="M20.5083 122.865L40.5325 110.618L73.4923 130.645L53.4681 142.891L20.5083 122.865Z" fill="white"/>
    <path d="M219.865 161.298L219.756 181.076C219.756 182.237 219.02 183.397 217.564 184.3L129.767 237.986L129.93 218.207L217.727 164.521C219.184 163.633 219.865 162.458 219.865 161.298Z" fill="#304CCF"/>
    <path d="M129.93 218.207L129.767 237.986C126.84 239.777 122.089 239.777 119.135 237.986L30.7797 184.3C29.296 183.397 28.5471 182.208 28.5471 181.019L28.6663 161.241C28.6663 162.416 29.4455 163.619 30.9296 164.521L119.298 218.207C122.239 219.998 127.003 219.998 129.93 218.207Z" fill="#4F91FF"/>
    <path d="M119.298 218.207L96.948 204.629V224.505L119.135 237.986C122.089 239.777 126.84 239.777 129.767 237.986L129.931 218.207C127.004 219.998 122.238 219.998 119.298 218.207Z" fill="#457AEF"/>
    <path d="M219.905 155.938L219.785 175.707C219.785 176.867 219.02 178.038 217.564 178.941L129.767 232.627L129.93 212.848L217.727 159.162C219.184 158.274 219.905 157.099 219.905 155.938Z" fill="#BBCFEF"/>
    <path d="M129.93 212.848L129.767 232.627C126.84 234.418 122.089 234.418 119.135 232.627L30.7797 178.941C29.296 178.038 28.5471 176.849 28.5471 175.66L28.7105 155.895C28.7105 157.07 29.4455 158.259 30.9296 159.162L119.298 212.848C122.239 214.639 127.003 214.639 129.93 212.848Z" fill="#DBE6FA"/>
    <path d="M119.298 212.848L96.948 199.269V219.146L119.135 232.627C122.089 234.418 126.84 234.418 129.767 232.627L129.931 212.848C127.004 214.639 122.238 214.639 119.298 212.848Z" fill="#CBDBF4"/>
    <path d="M217.69 152.672C220.636 154.462 220.652 157.367 217.725 159.158L129.927 212.855C126.999 214.645 122.243 214.64 119.296 212.85L30.9326 159.159C27.9859 157.368 27.9617 154.469 30.8892 152.678L118.687 98.9809C121.615 97.1905 126.38 97.1904 129.326 98.9809L217.69 152.672Z" fill="#EBF2FF"/>
    <path d="M207.546 152.261C210.172 153.857 210.186 156.447 207.577 158.043L129.317 205.906C126.707 207.502 122.468 207.498 119.841 205.902L41.0771 158.043C38.4506 156.447 38.429 153.863 41.0385 152.267L119.298 104.403C121.908 102.807 126.155 102.807 128.782 104.403L207.546 152.261Z" fill="white"/>
    <path d="M193.509 109.303L193.422 156.615C193.422 157.455 192.868 158.303 191.813 158.957L128.238 197.831L128.357 150.512L191.932 111.637C192.987 110.994 193.509 110.143 193.509 109.303Z" fill="#BBCFEF"/>
    <path d="M183.803 124.759L183.754 152.108L134.974 181.933L134.965 185.565L186.728 153.915L186.785 122.936L183.803 124.759Z" fill="#2A3134"/>
    <path d="M183.803 124.759L135.043 154.575L134.974 181.933L183.753 152.108L183.803 124.759Z" fill="#4F575F"/>
    <path d="M128.357 150.512L128.239 197.831C126.119 199.128 122.679 199.128 120.539 197.831L56.56 158.956C55.4856 158.303 54.9434 157.442 54.9434 156.581L55.0616 109.272C55.0616 110.122 55.5939 110.983 56.6685 111.637L120.658 150.512C122.787 151.809 126.237 151.809 128.357 150.512Z" fill="#DBE6FA"/>
    <path d="M64.9228 124.79L61.7255 122.847L61.647 153.91L121.559 190.319L121.569 186.414L64.8541 151.948L64.9228 124.79Z" fill="#2A3134"/>
    <path d="M121.572 186.406L121.549 190.33L61.6545 153.914L64.847 151.941L121.572 186.406Z" fill="#3D4449"/>
    <path d="M117.308 156.616L64.9224 124.79L64.8538 151.948L121.569 186.414L121.64 158.263C120.273 157.999 118.766 157.504 117.308 156.616Z" fill="#4F575F"/>
    <path d="M191.905 106.937C194.038 108.234 194.05 110.337 191.93 111.634L128.354 150.517C126.234 151.813 122.79 151.81 120.656 150.513L56.6704 111.634C54.5367 110.338 54.5192 108.238 56.639 106.942L120.215 68.0588C122.335 66.7623 125.785 66.7623 127.919 68.0588L191.905 106.937Z" fill="#EBF2FF"/>
    <path d="M182.815 107.253C184.662 108.375 184.671 110.196 182.837 111.318L127.807 144.975C125.972 146.097 122.991 146.093 121.144 144.971L65.7595 111.319C63.9126 110.197 63.8975 108.379 65.7324 107.257L120.762 73.6009C122.597 72.4787 125.584 72.4787 127.431 73.6009L182.815 107.253Z" fill="white"/>
    <path d="M171.997 110.934L168.738 112.929L127.158 138.373C125.656 139.273 123.229 139.273 121.726 138.373C117.113 135.567 138.438 148.536 76.6098 110.934C75.1072 110.034 75.084 108.55 76.5867 107.626L121.426 80.2121C122.905 79.288 125.355 79.288 126.858 80.2121L171.974 107.626C173.477 108.55 173.477 110.034 171.997 110.934Z" fill="#39C988"/>
    <path d="M168.738 112.929L127.158 138.372C125.656 139.272 123.229 139.272 121.726 138.372L79.8455 112.905L121.426 87.4607C122.905 86.561 125.355 86.561 126.858 87.4607L168.738 112.929Z" fill="#49E4A3"/>
    <path d="M76.7915 140.998C77.0106 141.131 77.191 141.46 77.1903 141.725L77.1549 154.856C77.1542 155.121 76.9726 155.218 76.7536 155.085L71.9436 152.162C71.7246 152.029 71.5537 151.718 71.5544 151.453L71.5898 138.322C71.5905 138.057 71.7625 137.942 71.9815 138.075L76.7915 140.998Z" fill="#FFDE9B"/>
    <path d="M86.2406 142.852C86.4595 142.985 86.6399 143.313 86.6392 143.578L86.5934 160.591C86.5927 160.856 86.4111 160.953 86.1922 160.82L81.3822 157.898C81.1631 157.764 80.9922 157.453 80.9929 157.188L81.0388 140.176C81.0395 139.911 81.2115 139.796 81.4306 139.929L86.2406 142.852Z" fill="#FF6161"/>
    <path d="M95.6582 160.18C95.8678 160.307 96.0482 160.625 96.0475 160.89L96.0328 166.326C96.0321 166.591 95.8506 166.688 95.641 166.561L90.8215 163.633C90.6025 163.5 90.4317 163.188 90.4324 162.923L90.447 157.487C90.4477 157.222 90.6197 157.118 90.8387 157.252L95.6582 160.18Z" fill="#FFDE9B"/>
    <path d="M114.551 168.515C114.761 168.642 114.941 168.96 114.941 169.224L114.926 177.802C114.925 178.067 114.744 178.164 114.534 178.037L109.715 175.108C109.496 174.975 109.325 174.664 109.325 174.399L109.34 165.822C109.341 165.557 109.513 165.453 109.732 165.586L114.551 168.515Z" fill="#FF6161"/>
    <path d="M105.113 160.121C105.332 160.255 105.503 160.566 105.502 160.831L105.472 172.061C105.471 172.326 105.299 172.429 105.08 172.296L100.27 169.374C100.051 169.241 99.8704 168.923 99.8711 168.658L99.9014 157.428C99.9021 157.163 100.084 157.066 100.303 157.199L105.113 160.121Z" fill="#FFDE9B"/>
    <path d="M186.736 153.914L134.967 185.56V181.943L183.745 152.105L186.736 153.914Z" fill="#3D4449"/>
    <path d="M223.47 219.686L223.465 224.988L200.016 239.329L200.021 234.028L223.47 219.686Z" fill="#BBCFEF"/>
    <path d="M200.021 234.028L200.015 239.329L163.625 217.218L163.63 211.916L200.021 234.028Z" fill="#CBDBF4"/>
    <path d="M223.47 219.686L200.02 234.028L163.63 211.916L187.079 197.574L223.47 219.686Z" fill="#EBF2FF"/>
    <path d="M187.072 185.279V197.566L163.632 211.921V199.61L176.981 191.434L187.072 185.279Z" fill="#4F575F"/>
    <path d="M187.072 185.279V197.566L176.981 191.434L187.072 185.279Z" fill="#2A3134"/>
    <path d="M181.49 150.179L139.365 175.787C139.409 175.153 140.481 163.006 143.473 160.704C146.389 158.467 147.234 160.353 148.294 160.774C148.852 161.009 150.147 160.774 151.487 159.975C152.692 159.247 153.942 158.002 154.634 156.146C156.063 152.363 156.465 147.218 160.595 144.704C160.706 144.634 160.818 144.563 160.93 144.516C165.35 142.12 167.582 146.372 167.895 147.383C168.185 148.464 168.989 148.487 169.882 147.947C171.02 147.242 172.359 145.644 173.185 144.023C173.989 142.472 174.86 141.439 175.73 140.898C178.655 139.136 181.535 142.825 181.49 150.179Z" fill="#49E4A3"/>
    <g opacity="0.7">
      <path opacity="0.6" d="M140.623 120.184C131.706 125.641 116.989 125.623 108.071 120.17C99.7744 115.16 99.7138 107.647 107.965 102.581C116.863 97.1356 131.551 97.1346 140.504 102.581C148.803 107.621 148.859 115.157 140.623 120.184Z" fill="#28AF6E"/>
      <path opacity="0.6" d="M114.57 116.651C109.6 113.632 109.574 109.129 114.508 106.112C119.842 102.849 128.641 102.849 134.01 106.112C138.978 109.131 139.012 113.636 134.077 116.654C128.743 119.917 119.944 119.916 114.57 116.651Z" fill="#189453"/>
      <g opacity="0.7">
        <path d="M173.289 29.8738L173.262 109.191C173.262 109.797 172.89 110.395 172.136 110.852L127.174 138.348C125.666 139.281 123.201 139.281 121.684 138.348L76.4383 110.861C75.6668 110.395 75.2854 109.779 75.2854 109.172L75.312 29.8738C75.312 30.4711 75.7022 31.0871 76.4561 31.5444L121.702 59.0307C123.228 59.9547 125.684 59.9547 127.2 59.0307L172.154 31.5351C172.908 31.0778 173.28 30.4804 173.289 29.8738Z" fill="url(#paint0_linear_15246_9207)"/>
      </g>
      <g opacity="0.7">
        <path d="M172.138 28.1862C173.661 29.1117 173.669 30.6117 172.156 31.5372L127.199 59.0332C125.685 59.9587 123.225 59.9587 121.702 59.0332L76.4557 31.5411C74.9326 30.6156 74.9246 29.1156 76.4378 28.1901L121.395 0.694111C122.908 -0.231376 125.369 -0.231364 126.892 0.694108L172.138 28.1862Z" fill="url(#paint1_linear_15246_9207)"/>
      </g>
    </g>
    <path d="M145.868 27.9142C145.868 31.7348 142.933 34.8241 139.303 34.8241C135.63 34.8241 132.737 31.6569 132.737 27.9142C132.737 23.0572 137.391 19.7568 141.588 21.4405C144.098 22.419 145.868 24.9545 145.868 27.9142Z" fill="#4DCDF3"/>
    <path d="M143.381 26.169C143.381 31.0911 138.631 34.3488 134.518 32.6311C133.516 31.5311 132.737 29.8219 132.737 27.9143C132.737 23.0554 137.395 19.7551 141.588 21.4406C142.698 22.6787 143.381 24.3414 143.381 26.169Z" fill="#71D8F8"/>
    <path d="M133.566 30.6382C133.466 30.6382 133.376 30.6382 133.275 30.6264C131.421 26.2182 134.517 21.0041 139.303 21.0041C139.404 21.0041 139.505 21.0041 139.594 21.0159C141.449 25.4214 138.372 30.6382 133.566 30.6382Z" fill="#95E2FE"/>
    <path d="M117.44 61.3887C117.44 65.2092 114.504 68.2986 110.874 68.2986C107.201 68.2986 104.308 65.1313 104.308 61.3887C104.308 56.5317 108.962 53.2313 113.16 54.9149C115.67 55.8935 117.44 58.4289 117.44 61.3887Z" fill="#FFB63C"/>
    <path d="M108.387 66.5535C107.58 66.5535 106.795 66.4003 106.09 66.1055C105.087 65.0056 104.308 63.2963 104.308 61.3888C104.308 56.5298 108.966 53.2295 113.16 54.915C117.096 59.309 114.123 66.5535 108.387 66.5535Z" fill="#FFCA6C"/>
    <path d="M105.137 64.1126C105.037 64.1126 104.947 64.1126 104.846 64.1008C102.992 59.6927 106.088 54.4786 110.874 54.4786C110.975 54.4786 111.076 54.4786 111.165 54.4904C113.02 58.8958 109.943 64.1126 105.137 64.1126Z" fill="#FFDE9B"/>
    <path d="M159.829 68.2988C159.829 72.1193 156.893 75.2086 153.263 75.2086C149.59 75.2086 146.697 72.0414 146.697 68.2988C146.697 63.4418 151.351 60.1414 155.549 61.825C158.058 62.8036 159.829 65.339 159.829 68.2988Z" fill="#E22525"/>
    <path d="M150.775 73.4635C149.969 73.4635 149.184 73.3103 148.478 73.0155C147.476 71.9156 146.697 70.2063 146.697 68.2988C146.697 64.4899 149.644 61.3886 153.263 61.3886C154.104 61.3886 154.868 61.5513 155.549 61.825C159.485 66.219 156.512 73.4635 150.775 73.4635Z" fill="#F04343"/>
    <path d="M147.526 71.0226C147.426 71.0226 147.336 71.0226 147.235 71.0108C145.381 66.6027 148.477 61.3886 153.263 61.3886C153.364 61.3886 153.465 61.3886 153.554 61.4004C155.409 65.8058 152.332 71.0226 147.526 71.0226Z" fill="#FF6161"/>
    <path d="M149.3 106.042C149.3 109.863 146.365 112.952 142.734 112.952C140.841 112.952 139.127 112.103 137.95 110.759C134.021 106.373 137.022 99.1321 142.734 99.1321C146.319 99.1321 149.3 102.192 149.3 106.042Z" fill="#FFB63C"/>
    <path d="M146.813 104.297C146.813 109.219 142.063 112.477 137.95 110.759C136.947 109.659 136.168 107.95 136.168 106.042C136.168 101.125 140.889 97.9081 145.02 99.5686C146.129 100.807 146.813 102.469 146.813 104.297Z" fill="#FFCA6C"/>
    <path d="M136.998 108.766C136.897 108.766 136.808 108.766 136.707 108.754C134.852 104.346 137.949 99.1321 142.735 99.1321C142.836 99.1321 142.936 99.1321 143.026 99.1439C144.88 103.549 141.803 108.766 136.998 108.766Z" fill="#FFDE9B"/>
    <path d="M113.623 112.731C113.623 116.552 110.687 119.641 107.057 119.641C105.163 119.641 103.449 118.792 102.273 117.448C98.3436 113.062 101.345 105.821 107.057 105.821C110.641 105.821 113.623 108.881 113.623 112.731Z" fill="#BBCFEF"/>
    <path d="M104.57 117.896C103.763 117.896 102.979 117.743 102.273 117.448C101.746 116.87 101.332 116.186 101.029 115.443C99.1746 111.035 102.271 105.821 107.057 105.821C107.898 105.821 108.662 105.984 109.343 106.258C113.28 110.652 110.306 117.896 104.57 117.896Z" fill="#DBE6FA"/>
    <path d="M101.32 115.455C101.219 115.455 101.13 115.455 101.029 115.443C99.1746 111.035 102.271 105.821 107.057 105.821C107.158 105.821 107.259 105.821 107.348 105.833C109.203 110.238 106.126 115.455 101.32 115.455Z" fill="white"/>
    <path d="M106.181 11.7625C106.181 15.5831 103.245 18.6724 99.6147 18.6724C95.9416 18.6724 93.0488 15.5052 93.0488 11.7625C93.0488 6.90552 97.7029 3.60512 101.9 5.28879C104.41 6.26732 106.181 8.80275 106.181 11.7625Z" fill="#28AF6E"/>
    <path d="M97.1273 16.9272C96.3206 16.9272 95.5362 16.7741 94.8303 16.4793C93.8278 15.3793 93.0488 13.6701 93.0488 11.7625C93.0488 6.90363 97.7072 3.60329 101.9 5.2888C105.837 9.6828 102.864 16.9272 97.1273 16.9272Z" fill="#39C988"/>
    <path d="M93.8784 14.4864C93.7776 14.4864 93.6879 14.4864 93.5871 14.4746C91.7327 10.0664 94.8294 4.85234 99.6151 4.85234C99.7161 4.85234 99.8167 4.85234 99.9064 4.86414C101.761 9.26958 98.6838 14.4864 93.8784 14.4864Z" fill="#49E4A3"/>
    <path d="M103.694 12.5622L136.436 25.8205" stroke="#4F575F" stroke-width="1.80842" stroke-miterlimit="10" stroke-linecap="round" stroke-linejoin="round"/>
    <path d="M138.058 31.5661L113.623 59.2944" stroke="#4F575F" stroke-width="1.80842" stroke-miterlimit="10" stroke-linecap="round" stroke-linejoin="round"/>
    <path d="M114.953 64.1127L149.301 66.554" stroke="#4F575F" stroke-width="1.80842" stroke-miterlimit="10" stroke-linecap="round" stroke-linejoin="round"/>
    <path d="M154.093 71.1525L142.086 101.072" stroke="#4F575F" stroke-width="1.80842" stroke-miterlimit="10" stroke-linecap="round" stroke-linejoin="round"/>
    <path d="M139.593 108.207L111.137 111.858" stroke="#4F575F" stroke-width="1.80842" stroke-miterlimit="10" stroke-linecap="round" stroke-linejoin="round"/>
    <path d="M193.929 214.884L193.95 222.573L201.141 226.97L201.12 219.282L193.929 214.884Z" fill="#A46EF2"/>
    <path d="M201.12 219.282L201.141 226.971L208.379 222.573L208.358 214.884L201.12 219.282Z" fill="#9156E5"/>
    <path d="M193.929 214.884L201.12 219.282L208.358 214.884L201.167 210.486L193.929 214.884Z" fill="#B785FF"/>
    <path d="M172.679 201.972L172.7 209.661L179.891 214.058L179.87 206.37L172.679 201.972Z" fill="#A46EF2"/>
    <path d="M179.87 206.37L179.891 214.058L187.129 209.661L187.108 201.972L179.87 206.37Z" fill="#9156E5"/>
    <path d="M172.679 201.972L179.87 206.37L187.108 201.972L179.917 197.574L172.679 201.972Z" fill="#B785FF"/>
    <path d="M35.5117 118.081L35.5324 125.769L42.7233 130.167L42.7026 122.479L35.5117 118.081Z" fill="#70444D"/>
    <path d="M42.7026 122.479L42.7234 130.167L49.9614 125.769L49.9407 118.081L42.7026 122.479Z" fill="#613941"/>
    <path d="M35.5117 118.081L42.7026 122.479L49.9406 118.081L42.7497 113.683L35.5117 118.081Z" fill="#804F59"/>
    <path d="M42.4851 232.964L24.5558 243.93L6.50903 232.964L24.4384 221.998L42.4851 232.964Z" stroke="#CBDBF4" stroke-width="1.80842" stroke-miterlimit="10" stroke-linecap="round" stroke-linejoin="round"/>
    <path d="M83.8825 225.14L46.5047 248L32.156 239.281" stroke="#CBDBF4" stroke-width="1.80842" stroke-miterlimit="10" stroke-linecap="round" stroke-linejoin="round"/>
    <path d="M42.4854 209.052L42.4337 228.221L24.5044 239.187L24.556 220.017L42.4854 209.052Z" fill="#4DCDF3"/>
    <path d="M24.5562 220.017L24.5045 239.187L6.45776 228.221L6.5094 209.052L24.5562 220.017Z" fill="#71D8F8"/>
    <path d="M42.4851 209.052L24.5558 220.017L6.50903 209.052L24.4384 198.086L42.4851 209.052Z" fill="#95E2FE"/>
    <g style="mix-blend-mode:hue">
      <rect x="0.833008" width="248" height="248" fill="#DDDDDD"/>
    </g>
  </g>
  <defs>
    <linearGradient id="paint0_linear_15246_9207" x1="124.287" y1="161.37" x2="124.287" y2="15.7838" gradientUnits="userSpaceOnUse">
      <stop offset="0.312849" stop-color="#49E4A3" stop-opacity="0.7"/>
      <stop offset="0.474357" stop-color="#4BE6AB" stop-opacity="0.535"/>
      <stop offset="0.72254" stop-color="#50EDC0" stop-opacity="0.283"/>
      <stop offset="1" stop-color="#57F7E0" stop-opacity="0"/>
    </linearGradient>
    <linearGradient id="paint1_linear_15246_9207" x1="124.297" y1="143.26" x2="124.297" y2="17.724" gradientUnits="userSpaceOnUse">
      <stop offset="0.312849" stop-color="#49E4A3" stop-opacity="0.7"/>
      <stop offset="0.474357" stop-color="#4BE6AB" stop-opacity="0.535"/>
      <stop offset="0.72254" stop-color="#50EDC0" stop-opacity="0.283"/>
      <stop offset="1" stop-color="#57F7E0" stop-opacity="0"/>
    </linearGradient>
  </defs>
</svg>