<svg xmlns="http://www.w3.org/2000/svg" width="249" height="248" viewBox="0 0 249 248" fill="none">
  <g opacity="0.5" clip-path="url(#clip0_15246_9016)">
    <path d="M23.4724 124.034H34.0328L46.4533 116.778L59.0992 116.778" stroke="#4F575F" stroke-width="1.12727" stroke-miterlimit="10" stroke-linecap="round" stroke-linejoin="round"/>
    <path d="M29.5895 95.4822L46.6158 105.688L61.5655 102.489L72.3951 109.496" stroke="#4F575F" stroke-width="1.12727" stroke-miterlimit="10" stroke-linecap="round" stroke-linejoin="round"/>
    <path d="M182.814 120.228L211.655 103.758V89.3221" stroke="#4F575F" stroke-width="1.12727" stroke-miterlimit="10" stroke-linecap="round" stroke-linejoin="round"/>
    <path d="M199.181 129.771L211.025 129.097L227.893 118.751" stroke="#4F575F" stroke-width="1.12727" stroke-miterlimit="10" stroke-linecap="round" stroke-linejoin="round"/>
    <path d="M23.4875 122.812C22.3247 122.147 20.45 122.147 19.2872 122.812C18.1245 123.476 18.1245 124.592 19.2872 125.256C20.4737 125.92 22.3485 125.92 23.5112 125.256C24.6502 124.592 24.6502 123.476 23.4875 122.812Z" fill="#FF6161"/>
    <path d="M29.8538 93.4545C28.6911 92.7901 26.8163 92.7901 25.6536 93.4545C24.4908 94.119 24.4908 95.2342 25.6536 95.8987C26.8401 96.5631 28.7148 96.5631 29.8776 95.8987C31.0166 95.2342 31.0166 94.119 29.8538 93.4545Z" fill="#39C988"/>
    <path d="M213.753 87.4463C212.59 86.782 210.716 86.782 209.553 87.4463C208.39 88.1109 208.39 89.2261 209.553 89.8906C210.739 90.555 212.614 90.555 213.777 89.8906C214.916 89.2261 214.916 88.1109 213.753 87.4463Z" fill="#39C988"/>
    <path d="M230.809 117.285C229.647 116.621 227.772 116.621 226.609 117.285C225.446 117.95 225.446 119.065 226.609 119.73C227.796 120.394 229.67 120.394 230.833 119.73C231.972 119.065 231.972 117.95 230.809 117.285Z" fill="#4F91FF"/>
    <path d="M227.924 154.74C231.052 156.546 231.069 159.477 227.96 161.283L123.87 221.774C120.762 223.58 115.712 223.575 112.584 221.769L18.7655 167.603C15.637 165.796 15.6113 162.871 18.7195 161.065L122.81 100.574C125.918 98.7681 130.977 98.7681 134.106 100.574L227.924 154.74Z" stroke="#4F575F" stroke-width="1.12727" stroke-miterlimit="10" stroke-linecap="round" stroke-linejoin="round"/>
    <path d="M216.414 137.129L216.26 156.495C216.26 157.631 215.502 158.767 214.001 159.651L123.532 212.216L123.7 192.85L214.17 140.285C215.671 139.416 216.414 138.265 216.414 137.129Z" fill="#BBCFEF"/>
    <path d="M123.7 192.85L123.532 212.216C120.516 213.969 115.62 213.969 112.576 212.216L21.531 159.651C20.0021 158.767 19.2305 157.603 19.2305 156.439L19.3988 137.087C19.3988 138.237 20.1562 139.402 21.6854 140.285L112.744 192.85C115.774 194.604 120.684 194.604 123.7 192.85Z" fill="#DBE6FA"/>
    <path d="M112.744 192.85L89.7137 179.555V199.016L112.576 212.216C115.62 213.97 120.516 213.97 123.532 212.216L123.701 192.85C120.684 194.604 115.774 194.604 112.744 192.85Z" fill="#CBDBF4"/>
    <path d="M214.132 133.931C217.168 135.684 217.184 138.528 214.168 140.281L123.697 192.857C120.68 194.61 115.779 194.605 112.743 192.852L21.6889 140.282C18.6525 138.529 18.6276 135.69 21.6442 133.937L112.115 81.361C115.132 79.6079 120.042 79.6079 123.078 81.361L214.132 133.931Z" fill="#EBF2FF"/>
    <path d="M205.496 139.99L123.182 187.823C120.433 189.418 115.966 189.418 113.218 187.823L30.3633 139.99C27.59 138.395 27.5655 135.818 30.3145 134.222L112.629 86.3897C115.377 84.7947 119.844 84.7947 122.617 86.3897L205.447 134.222C208.22 135.818 208.245 138.395 205.496 139.99Z" stroke="#FF6161" stroke-width="1.12727" stroke-miterlimit="10"/>
    <path d="M193.983 139.611L122.489 181.156C120.102 182.542 116.222 182.542 113.834 181.156L41.8714 139.611C39.4627 138.225 39.4414 135.987 41.829 134.602L113.323 93.0566C115.71 91.6713 119.59 91.6713 121.998 93.0566L193.94 134.602C196.349 135.987 196.37 138.225 193.983 139.611Z" fill="white"/>
    <path d="M182.814 124.103L182.713 136.73C182.713 137.47 182.219 138.211 181.24 138.788L122.254 173.06L122.363 160.434L181.35 126.161C182.329 125.594 182.814 124.844 182.814 124.103Z" fill="#FFB63C"/>
    <path d="M122.363 160.434L122.253 173.06C120.287 174.204 117.095 174.204 115.11 173.06L55.7479 138.788C54.751 138.211 54.2479 137.452 54.2479 136.693L54.3577 124.076C54.3577 124.826 54.8515 125.585 55.8486 126.161L115.22 160.434C117.195 161.577 120.397 161.577 122.363 160.434Z" fill="#FFDE9B"/>
    <path d="M118.832 161.287V173.902C120.074 173.881 121.307 173.611 122.254 173.06L122.364 160.434C121.39 161 120.112 161.282 118.832 161.287Z" fill="#FFCA6C"/>
    <path d="M181.325 122.018C183.305 123.161 183.315 125.015 181.349 126.158L122.361 160.438C120.394 161.581 117.198 161.578 115.219 160.435L55.8508 126.159C53.8711 125.016 53.8548 123.165 55.8217 122.022L114.809 87.7418C116.776 86.5988 119.978 86.5988 121.957 87.7418L181.325 122.018Z" fill="white"/>
    <path d="M114.49 102.056L114.504 97.2854C114.504 97.2912 114.504 97.297 114.504 97.3027C114.513 97.5314 114.693 97.7471 115.029 97.9413L115.016 102.712C114.679 102.518 114.499 102.302 114.491 102.074C114.49 102.068 114.49 102.062 114.49 102.056Z" fill="#2A3134"/>
    <path d="M155.541 116.584L155.528 121.355C155.528 121.363 155.527 121.371 155.527 121.379C155.513 121.603 155.328 121.823 154.972 122.03L154.985 117.259C155.342 117.052 155.527 116.832 155.54 116.608C155.541 116.6 155.541 116.592 155.541 116.584Z" fill="#181E1E"/>
    <path d="M154.985 117.26L154.971 122.031L152.87 123.252L152.883 118.481L154.985 117.26Z" fill="#181E1E"/>
    <path d="M150.626 118.494L150.613 123.265L115.016 102.713L115.029 97.9415L150.626 118.494Z" fill="#2A3134"/>
    <path d="M152.884 118.481L152.87 123.252C152.113 123.692 151.361 123.696 150.613 123.265L150.627 118.494C151.374 118.925 152.127 118.921 152.884 118.481Z" fill="#181E1E"/>
    <path d="M155.007 115.948C155.381 116.163 155.554 116.383 155.54 116.608C155.526 116.832 155.341 117.052 154.985 117.259L152.884 118.48C152.126 118.921 151.374 118.925 150.627 118.493L115.029 97.9413C114.362 97.5563 114.291 97.0714 115.044 96.6338L117.146 95.4127C117.791 95.0377 118.698 94.9842 119.41 95.3954L155.007 115.948Z" fill="#4F575F"/>
    <path d="M124.118 120.582L124.104 125.353L98.0917 118.868L98.1052 114.097L124.118 120.582Z" fill="#181E1E"/>
    <path d="M145.632 122.354L145.619 127.125C145.619 127.164 145.612 127.203 145.599 127.243L145.613 122.472C145.626 122.432 145.632 122.393 145.632 122.354Z" fill="#181E1E"/>
    <path d="M145.613 122.472L145.599 127.243C145.519 127.446 145.311 127.644 144.977 127.839L144.991 123.068C145.325 122.873 145.532 122.675 145.613 122.472Z" fill="#181E1E"/>
    <path d="M144.99 123.068L144.977 127.839L142.801 129.103L142.815 124.332L144.99 123.068Z" fill="#181E1E"/>
    <path d="M140.469 124.569L140.456 129.34L130.214 126.825L130.227 122.054L140.469 124.569Z" fill="#181E1E"/>
    <path d="M142.814 124.332L142.801 129.103C142.103 129.509 141.243 129.531 140.456 129.34L140.469 124.569C141.257 124.76 142.117 124.737 142.814 124.332Z" fill="#181E1E"/>
    <path d="M130.227 122.054L130.214 126.825L111.807 137.522L111.82 132.751L130.227 122.054Z" fill="#2A3134"/>
    <path d="M116.458 139.198L116.445 143.969C116.444 144.269 116.241 144.538 115.833 144.775L115.847 140.004C116.254 139.767 116.458 139.498 116.458 139.198Z" fill="#181E1E"/>
    <path d="M90.1771 116.145L90.1906 111.374C90.1904 111.481 90.2984 111.791 90.4726 112.004C90.9445 112.577 89.2627 110.462 111.233 140.971L111.22 145.742C91.4735 118.322 90.851 117.251 90.4591 116.775C90.2848 116.562 90.1768 116.252 90.1771 116.145Z" fill="#2A3134"/>
    <path d="M111.339 141.117L111.325 145.888L111.22 145.742L111.233 140.971L111.339 141.117Z" fill="#2A3134"/>
    <path d="M115.846 140.004L115.833 144.775L113.657 146.039L113.671 141.268L115.846 140.004Z" fill="#181E1E"/>
    <path d="M130.228 122.054L111.821 132.751L116.226 138.606C116.632 139.15 116.508 139.62 115.847 140.004L113.671 141.268C112.951 141.687 112.318 141.743 111.773 141.428C111.616 141.337 111.474 141.238 111.339 141.117L111.234 140.971C91.4874 113.551 90.8649 112.48 90.473 112.004C90.3529 111.857 90.2626 111.676 90.2017 111.452C90.1409 111.236 90.3406 110.99 90.7936 110.727L92.286 109.86C92.7092 109.614 93.1109 109.51 93.491 109.54C93.8786 109.575 94.1991 109.622 94.4677 109.683C109.144 113.203 143.695 121.471 144.842 121.769C145.811 122.009 145.924 122.525 144.991 123.068C142.982 124.163 142.676 124.6 141.692 124.673C140.562 124.746 140.784 124.578 130.228 122.054ZM109.312 129.186L124.118 120.582L98.1055 114.097L109.312 129.186Z" fill="#4F575F"/>
    <path d="M113.671 141.268L113.658 146.039C112.937 146.458 112.304 146.514 111.759 146.199C111.602 146.108 111.46 146.009 111.325 145.888L111.339 141.117C111.473 141.238 111.615 141.337 111.772 141.428C112.318 141.743 112.951 141.687 113.671 141.268Z" fill="#181E1E"/>
    <g opacity="0.3">
      <path d="M182.199 125.607L118.733 162.491L54.8397 125.607L118.305 88.7225L182.199 125.607Z" fill="#49E4A3"/>
    </g>
    <g opacity="0.2">
      <path d="M118.323 15.7819L60.8434 49.1961L118.726 82.6104L176.206 49.1961L118.323 15.7819ZM118.701 74.7485L74.4258 49.1709L118.348 23.6443L162.623 49.2213L118.701 74.7485Z" fill="#49E4A3"/>
      <path d="M182.199 65.54L118.718 102.423V82.5997L176.201 49.192L182.199 65.54Z" fill="#189453"/>
      <path d="M118.718 82.5997V102.423L54.8481 65.54L60.8463 49.192L118.718 82.5997Z" fill="#28AF6E"/>
      <path d="M118.726 102.417V162.492L182.203 125.6V65.5503L118.726 102.417ZM175.399 121.694L125.53 150.674V106.348L175.399 77.3689V121.694Z" fill="#49E4A3"/>
      <path d="M54.8464 65.5503V125.6L118.726 162.492V102.417L54.8464 65.5503ZM111.721 150.673L61.8516 121.694V77.3689L111.721 106.348V150.673Z" fill="#49E4A3"/>
    </g>
    <path d="M176.202 49.1919L118.715 82.5999L60.8458 49.1919L118.333 15.7841L176.202 49.1919Z" stroke="#4F91FF" stroke-width="1.12727" stroke-miterlimit="10" stroke-linecap="round" stroke-linejoin="round"/>
    <path d="M182.2 65.5401L118.719 102.423V82.5998L176.202 49.192L182.2 65.5401Z" stroke="#4F91FF" stroke-width="1.12727" stroke-miterlimit="10" stroke-linecap="round" stroke-linejoin="round"/>
    <path d="M118.718 82.5998V102.423L54.8481 65.5401L60.8463 49.192L118.718 82.5998Z" stroke="#4F91FF" stroke-width="1.12727" stroke-miterlimit="10" stroke-linecap="round" stroke-linejoin="round"/>
    <path d="M182.2 65.5402V125.613L118.735 162.495V102.423L182.2 65.5402Z" stroke="#4F91FF" stroke-width="1.12727" stroke-miterlimit="10" stroke-linecap="round" stroke-linejoin="round"/>
    <path d="M54.8439 65.5388V125.611L118.735 162.496V102.423L54.8439 65.5388Z" stroke="#4F91FF" stroke-width="1.12727" stroke-miterlimit="10" stroke-linecap="round" stroke-linejoin="round"/>
    <path opacity="0.3" d="M111.716 106.337L61.8616 77.3625V121.696L111.716 150.672V106.337Z" fill="white"/>
    <path opacity="0.3" d="M125.539 106.338L175.394 77.3633V121.697L125.539 150.673V106.338Z" fill="white"/>
    <g opacity="0.3">
      <path d="M74.4197 49.1715L118.346 23.6461L162.627 49.2108L118.703 74.7374L74.4197 49.1715Z" fill="white"/>
    </g>
    <path d="M23.4725 183.837H34.033L46.4534 191.093H59.0994" stroke="#4F575F" stroke-width="1.12727" stroke-miterlimit="10" stroke-linecap="round" stroke-linejoin="round"/>
    <path d="M29.5892 212.389L46.6156 202.182L61.5653 205.382L72.395 198.375" stroke="#4F575F" stroke-width="1.12727" stroke-miterlimit="10" stroke-linecap="round" stroke-linejoin="round"/>
    <path d="M91.6545 209.754L78.105 218.255L90.4744 225.481L82.6516 230.117" stroke="#4F575F" stroke-width="1.12727" stroke-miterlimit="10" stroke-linecap="round" stroke-linejoin="round"/>
    <path d="M182.814 187.643L211.655 204.113V218.549" stroke="#4F575F" stroke-width="1.12727" stroke-miterlimit="10" stroke-linecap="round" stroke-linejoin="round"/>
    <path d="M149.61 228.87L161.615 221.686L177.306 223.483L184.128 218.91L184.101 218.926L156.242 203.034" stroke="#4F575F" stroke-width="1.12727" stroke-miterlimit="10" stroke-linecap="round" stroke-linejoin="round"/>
    <path d="M199.181 178.099L211.025 178.774L227.893 189.12" stroke="#4F575F" stroke-width="1.12727" stroke-miterlimit="10" stroke-linecap="round" stroke-linejoin="round"/>
    <path d="M22.9805 186.764C21.144 187.814 18.1828 187.814 16.3463 186.764C14.5097 185.715 14.5097 183.953 16.3463 182.904C18.2203 181.854 21.1815 181.854 23.018 182.904C24.8171 183.953 24.8171 185.715 22.9805 186.764Z" fill="#FF6161"/>
    <path d="M29.8537 214.417C28.691 215.081 26.8162 215.081 25.6534 214.417C24.4907 213.752 24.4907 212.637 25.6534 211.973C26.8399 211.308 28.7147 211.308 29.8775 211.973C31.0165 212.637 31.0165 213.752 29.8537 214.417Z" fill="#39C988"/>
    <path d="M83.8831 231.72C82.7204 232.384 80.8456 232.384 79.6829 231.72C78.5201 231.055 78.5201 229.94 79.6829 229.276C80.8694 228.611 82.7441 228.611 83.9069 229.276C85.0459 229.94 85.0459 231.055 83.8831 231.72Z" fill="#4F91FF"/>
    <path d="M150.163 230.733C149 231.397 147.125 231.397 145.962 230.733C144.8 230.068 144.8 228.953 145.962 228.288C147.149 227.624 149.024 227.624 150.186 228.288C151.325 228.953 151.325 230.068 150.163 230.733Z" fill="#FF6161"/>
    <path d="M213.754 220.425C212.591 221.089 210.716 221.089 209.554 220.425C208.391 219.76 208.391 218.645 209.554 217.98C210.74 217.316 212.615 217.316 213.778 217.98C214.917 218.645 214.917 219.76 213.754 220.425Z" fill="#39C988"/>
    <path d="M233.095 191.911C231.409 192.875 228.689 192.875 227.003 191.911C225.316 190.947 225.316 189.33 227.003 188.366C228.724 187.402 231.443 187.402 233.13 188.366C234.782 189.33 234.782 190.947 233.095 191.911Z" fill="#4F91FF"/>
    <path d="M208.476 150.283L209.888 151.103C209.268 150.743 208.408 150.796 207.459 151.344L206.047 150.523C206.995 149.975 207.856 149.922 208.476 150.283Z" fill="#3A63DF"/>
    <path d="M205.078 159.378L203.666 158.557C203.054 158.202 202.674 157.445 202.671 156.37C202.665 154.213 204.178 151.601 206.046 150.523L207.459 151.344C204.515 153.043 202.921 158.124 205.078 159.378Z" fill="#457AEF"/>
    <path d="M207.459 151.344C209.336 150.26 210.867 151.114 210.873 153.27C210.88 155.427 209.358 158.063 207.481 159.146C205.613 160.225 204.089 159.347 204.083 157.19C204.077 155.034 205.591 152.422 207.459 151.344Z" fill="#4F91FF"/>
    <path d="M195.271 157.941L196.684 158.762C196.064 158.402 195.205 158.453 194.259 158.999L192.846 158.179C193.793 157.632 194.652 157.581 195.271 157.941Z" fill="#E22525"/>
    <path d="M191.878 167.044L190.466 166.223C189.854 165.867 189.474 165.11 189.471 164.035C189.465 161.879 190.978 159.257 192.846 158.179L194.259 158.999C191.315 160.699 189.72 165.79 191.878 167.044Z" fill="#F04343"/>
    <path d="M194.258 159C196.135 157.916 197.667 158.779 197.673 160.936C197.679 163.092 196.157 165.728 194.281 166.812C192.412 167.89 190.889 167.013 190.883 164.856C190.877 162.699 192.39 160.078 194.258 159Z" fill="#FF6161"/>
    <path d="M182.07 165.596L183.483 166.417C182.863 166.057 182.005 166.109 181.058 166.655L179.646 165.834C180.592 165.288 181.451 165.236 182.07 165.596Z" fill="#3A63DF"/>
    <path d="M178.678 174.699L177.265 173.878C176.653 173.523 176.273 172.765 176.27 171.691C176.264 169.534 177.777 166.913 179.646 165.834L181.058 166.655C179.19 167.733 177.677 170.355 177.683 172.511C177.686 173.586 178.066 174.344 178.678 174.699Z" fill="#457AEF"/>
    <path d="M181.058 166.655C182.935 165.572 184.467 166.435 184.473 168.591C184.479 170.748 182.957 173.384 181.08 174.467C179.212 175.546 177.689 174.668 177.683 172.512C177.677 170.355 179.19 167.734 181.058 166.655Z" fill="#4F91FF"/>
    <path d="M29.2498 152.698L27.8373 153.518C28.4572 153.158 29.3177 153.211 30.2663 153.759L31.6788 152.938C30.7302 152.39 29.8697 152.337 29.2498 152.698Z" fill="#3A63DF"/>
    <path d="M32.6468 161.793L34.0593 160.973C34.6712 160.617 35.0512 159.86 35.0543 158.785C35.0604 156.628 33.547 154.017 31.6787 152.938L30.2662 153.759C33.2103 155.459 34.8045 160.539 32.6468 161.793Z" fill="#457AEF"/>
    <path d="M30.2661 153.759C28.3894 152.675 26.8576 153.529 26.8515 155.685C26.8453 157.842 28.3673 160.478 30.244 161.561C32.1122 162.64 33.6355 161.762 33.6417 159.606C33.6478 157.449 32.1343 154.837 30.2661 153.759Z" fill="#4F91FF"/>
    <path d="M42.4541 160.356L41.0416 161.177C41.6612 160.817 42.52 160.868 43.4665 161.414L44.879 160.594C43.9325 160.047 43.0737 159.996 42.4541 160.356Z" fill="#E22525"/>
    <path d="M45.8472 169.459L47.2597 168.638C47.8716 168.282 48.2517 167.525 48.2547 166.45C48.2608 164.294 46.7474 161.672 44.8792 160.594L43.4667 161.415C46.4108 163.114 48.005 168.205 45.8472 169.459Z" fill="#F04343"/>
    <path d="M43.4666 161.415C41.5899 160.331 40.058 161.194 40.0519 163.351C40.0458 165.507 41.5677 168.143 43.4444 169.227C45.3126 170.305 46.836 169.428 46.8421 167.271C46.8482 165.115 45.3348 162.493 43.4666 161.415Z" fill="#FF6161"/>
    <path d="M55.6543 168.012L54.2418 168.832C54.8614 168.472 55.7202 168.524 56.6666 169.07L58.0792 168.249C57.1327 167.703 56.2739 167.651 55.6543 168.012Z" fill="#3A63DF"/>
    <path d="M59.0474 177.115L60.4599 176.294C61.0718 175.938 61.4519 175.181 61.4549 174.106C61.461 171.949 59.9476 169.328 58.0794 168.249L56.6669 169.07C59.611 170.77 61.2052 175.861 59.0474 177.115Z" fill="#457AEF"/>
    <path d="M56.6668 169.07C54.7901 167.987 53.2582 168.85 53.2521 171.006C53.246 173.163 54.7679 175.799 56.6446 176.882C58.5128 177.961 60.0362 177.083 60.0423 174.927C60.0484 172.77 58.535 170.149 56.6668 169.07Z" fill="#4F91FF"/>
    <g style="mix-blend-mode:hue">
      <rect x="0.999878" width="248" height="248" fill="#DDDDDD"/>
    </g>
  </g>
  <defs>
    <clipPath id="clip0_15246_9016">
      <rect width="248" height="248" fill="white" transform="translate(0.666626)"/>
    </clipPath>
  </defs>
</svg>