<svg xmlns="http://www.w3.org/2000/svg" width="17" height="16" viewBox="0 0 17 16" fill="none">
  <path d="M11.3333 2.59999H13.7333C13.8925 2.59999 14.0451 2.66321 14.1576 2.77573C14.2701 2.88825 14.3333 3.04086 14.3333 3.19999V12.8C14.3333 12.9591 14.2701 13.1117 14.1576 13.2243C14.0451 13.3368 13.8925 13.4 13.7333 13.4H2.93334C2.77421 13.4 2.6216 13.3368 2.50908 13.2243C2.39656 13.1117 2.33334 12.9591 2.33334 12.8V3.19999C2.33334 3.04086 2.39656 2.88825 2.50908 2.77573C2.6216 2.66321 2.77421 2.59999 2.93334 2.59999H5.33334V1.39999H6.53334V2.59999H10.1333V1.39999H11.3333V2.59999ZM10.1333 3.79999H6.53334V4.99999H5.33334V3.79999H3.53334V6.19999H13.1333V3.79999H11.3333V4.99999H10.1333V3.79999ZM13.1333 7.39999H3.53334V12.2H13.1333V7.39999Z" fill="#8CE339"/>
</svg>