<svg xmlns="http://www.w3.org/2000/svg" width="32" height="32" viewBox="0 0 32 32" fill="none">
  <path d="M26.1926 20.6476L26.1926 21.2237L26.691 21.5127L27.9353 22.2341L26.4815 24.7627L25.2435 24.0449L24.7419 23.7541L24.2403 24.0449L17.949 27.6925L17.4506 27.9815V28.5577V30H14.5494V28.5577V27.9815L14.0509 27.6925L7.75963 24.0449L7.25805 23.7541L6.75648 24.0449L5.51846 24.7627L4.06469 22.2341L5.30895 21.5127L5.80737 21.2237V20.6476V13.3524V12.7763L5.30895 12.4873L4.06469 11.7659L5.51846 9.23727L6.75648 9.95506L7.25805 10.2459L7.75963 9.95506L14.0509 6.30746L14.5494 6.01848V5.44234V4H17.4506V5.44234V6.01848L17.9491 6.30746L24.2404 9.95506L24.7419 10.2459L25.2435 9.95506L26.4815 9.23727L27.9353 11.7659L26.691 12.4873L26.1926 12.7763L26.1926 13.3524L26.1926 20.6476ZM28.0234 22.0807L28.0232 22.0812C28.0233 22.081 28.0234 22.0808 28.0235 22.0806L28.0234 22.0807ZM26.6423 24.856L26.6417 24.8556C26.6419 24.8558 26.6421 24.8559 26.6423 24.856L26.6423 24.856ZM5.35766 24.856C5.35779 24.8559 5.35793 24.8558 5.35807 24.8557L5.35766 24.856ZM5.35761 9.14402L5.35766 9.14404L5.35761 9.14402Z" stroke="#8CE339" stroke-width="2"/>
</svg>