<svg xmlns="http://www.w3.org/2000/svg" width="25" height="24" viewBox="0 0 25 24" fill="none">
  <path fill-rule="evenodd" clip-rule="evenodd" d="M16.5961 8.63006C17.3197 7.96045 18.269 7.54541 19.3271 7.54505C21.6783 7.54583 23.583 9.45217 23.583 11.8049C23.583 13.8404 21.5687 15.581 21.0652 15.9818C18.7105 17.8569 15.6433 18.9534 12.333 18.9534C9.02269 18.9534 5.95553 17.8569 3.60081 15.9818C3.10011 15.581 1.08301 13.8375 1.08301 11.8049C1.08301 9.45169 2.98853 7.54505 5.33752 7.54505C6.39614 7.54505 7.34604 7.96016 8.06991 8.63006L8.1443 8.59284C8.31024 6.39705 10.0956 4.66504 12.333 4.66504C14.5704 4.66504 16.3558 6.39705 16.5217 8.59284L16.5961 8.63006ZM17.4459 12.8651C17.7692 13.1886 18.0009 13.5779 18.1297 14.0044H18.1325C18.1926 14.1991 18.0581 14.4024 17.8579 14.4367C17.689 14.4654 17.526 14.3594 17.4745 14.1934C17.3772 13.8785 17.2055 13.5893 16.9652 13.3489C16.5761 12.9595 16.0582 12.7448 15.506 12.7448C15.4846 12.7448 15.4638 12.7462 15.4431 12.7477C15.4223 12.7491 15.4016 12.7506 15.3801 12.7506C15.6891 12.8936 15.9066 13.2057 15.9066 13.5693C15.9066 14.0703 15.5032 14.4739 15.0024 14.4739C14.5018 14.4739 14.0984 14.0674 14.0984 13.5693C14.0984 13.4548 14.1212 13.3432 14.1613 13.2429C14.1212 13.2773 14.0811 13.3116 14.044 13.3489C13.8036 13.5893 13.632 13.8785 13.5347 14.1934C13.4861 14.3594 13.3229 14.4654 13.1513 14.4367C12.951 14.4024 12.8166 14.1991 12.8766 14.0044C13.0054 13.5779 13.2371 13.1886 13.5605 12.8651C14.0783 12.3469 14.7707 12.0606 15.5032 12.0606C16.2356 12.0606 16.928 12.3469 17.4459 12.8651ZM9.10288 12.7477C9.12363 12.7463 9.14437 12.7448 9.16585 12.7448C9.71805 12.7448 10.2359 12.9595 10.625 13.3489C10.8653 13.5894 11.037 13.8786 11.1343 14.1935C11.1858 14.3595 11.3489 14.4654 11.5177 14.4368C11.7179 14.4025 11.8525 14.1992 11.7924 14.0045C11.6636 13.5779 11.4318 13.1886 11.1086 12.8651C10.5907 12.3469 9.89831 12.0607 9.16585 12.0607C8.43339 12.0607 7.74098 12.3469 7.22311 12.8651C6.89981 13.1886 6.66805 13.5779 6.5393 14.0045C6.47921 14.1992 6.61369 14.4025 6.81397 14.4368C6.98564 14.4654 7.14873 14.3595 7.19736 14.1935C7.29464 13.8786 7.46631 13.5894 7.70665 13.3489C7.74384 13.3117 7.78389 13.2773 7.82395 13.243C7.78389 13.3432 7.76101 13.4549 7.76101 13.5694C7.76101 14.0675 8.16442 14.474 8.66511 14.474C9.16585 14.474 9.56925 14.0703 9.56925 13.5694C9.56925 13.2058 9.35182 12.8937 9.04277 12.7506H9.03991C9.06139 12.7506 9.08214 12.7492 9.10288 12.7477ZM12.3361 16.0542C12.8626 16.0542 13.3433 15.8538 13.7095 15.5274C13.844 15.41 14.0414 15.4043 14.173 15.5217C14.3218 15.6534 14.3304 15.891 14.1816 16.0256C13.6952 16.4693 13.0457 16.7413 12.3361 16.7413C11.6266 16.7413 10.98 16.4693 10.4907 16.0256C10.3419 15.891 10.3505 15.6563 10.4993 15.5217C10.6338 15.4015 10.8312 15.41 10.9628 15.5274C11.3261 15.8538 11.8097 16.0542 12.3361 16.0542Z" fill="white"/>
</svg>