<svg xmlns="http://www.w3.org/2000/svg" width="21" height="20" viewBox="0 0 21 20" fill="none">
  <path d="M15.3333 6.66669L16.1239 6.93021C16.9489 7.20522 17.3614 7.34272 17.5974 7.67008C17.8333 7.99744 17.8333 8.43227 17.8333 9.30192V14.0242C17.8333 15.0999 17.8333 15.6378 17.5502 15.9833C17.4541 16.1007 17.3374 16.1995 17.2058 16.2751C16.8185 16.4975 16.2879 16.4091 15.2268 16.2323C14.1798 16.0578 13.6562 15.9705 13.1374 16.0139C12.9553 16.0292 12.7744 16.0564 12.5959 16.0954C12.0872 16.2064 11.6083 16.4459 10.6505 16.9248C9.40076 17.5496 8.77588 17.8621 8.11071 17.9584C7.91036 17.9874 7.70817 18.0018 7.50574 18.0014C6.83364 18.0001 6.17656 17.7811 4.86241 17.343L4.54277 17.2365C3.71775 16.9615 3.30524 16.824 3.06929 16.4966C2.83334 16.1693 2.83334 15.7344 2.83334 14.8648V10.7567C2.83334 9.37428 2.83334 8.68308 3.24036 8.31133C3.31157 8.24629 3.39008 8.1897 3.47431 8.14271C3.95569 7.87414 4.61142 8.09271 5.92289 8.52987" stroke="#8CE339" stroke-width="1.5"/>
  <path d="M5.33334 6.41694C5.33334 3.79345 7.57192 1.66669 10.3333 1.66669C13.0948 1.66669 15.3333 3.79345 15.3333 6.41694C15.3333 9.01988 13.7375 12.0573 11.2477 13.1434C10.6673 13.3967 9.99943 13.3967 9.41901 13.1434C6.92917 12.0573 5.33334 9.01988 5.33334 6.41694Z" stroke="#8CE339" stroke-width="1.5"/>
  <ellipse cx="10.3333" cy="6.66667" rx="1.66667" ry="1.66667" stroke="#8CE339" stroke-width="1.5"/>
</svg>