<svg xmlns="http://www.w3.org/2000/svg" width="32" height="32" viewBox="0 0 32 32" fill="none">
  <path d="M28.8453 20.1687L30.4507 21.0956C30.8991 21.3544 31.0528 21.9278 30.7938 22.3762L28.9188 25.6238C28.66 26.0722 28.0866 26.2259 27.6381 25.9669L26.0328 25.0401L18.8125 29.2087V31.0625C18.8125 31.5802 18.3928 32 17.875 32H14.125C13.6073 32 13.1875 31.5802 13.1875 31.0625V29.2087L5.9672 25.0401L4.36183 25.9669C3.91345 26.2258 3.34008 26.0722 3.08114 25.6238L1.20614 22.3762C0.947263 21.9278 1.10089 21.3544 1.54926 21.0956L3.15464 20.1687V11.8313L1.54926 10.9044C1.10089 10.6456 0.947263 10.0722 1.20614 9.62381L3.08114 6.37619C3.34001 5.92781 3.91339 5.77413 4.36183 6.03306L5.9672 6.95994L13.1875 2.79125V0.9375C13.1875 0.41975 13.6073 0 14.125 0H17.875C18.3928 0 18.8125 0.41975 18.8125 0.9375V2.79125L26.0328 6.95994L27.6382 6.03306C28.0866 5.77419 28.66 5.92781 28.9189 6.37619L30.7939 9.62381C31.0528 10.0722 30.8991 10.6456 30.4508 10.9044L28.8454 11.8313V20.1687H28.8453Z" fill="#80E142"/>
  <path d="M13.8125 16.7812H14.4319C14.7965 16.7812 15.131 16.9913 15.2816 17.3233C15.647 18.1294 16.4515 18.6562 17.3515 18.6562H18.5C19.7924 18.6562 20.8438 19.7076 20.8438 21C20.8438 22.2924 19.7924 23.3438 18.5 23.3438H13.8125C12.0033 23.3438 10.5313 21.8718 10.5313 20.0625C10.5313 18.2532 12.0033 16.7812 13.8125 16.7812ZM21 9.28125C19.0185 9.28125 17.4063 10.8934 17.4063 12.875C17.4063 14.8566 19.0185 16.4688 21 16.4688C22.9816 16.4688 24.5938 14.8566 24.5938 12.875C24.5938 10.8934 22.9816 9.28125 21 9.28125ZM25.413 21.0379C25.7791 20.6718 25.7791 20.0783 25.413 19.7121L24.163 18.4621C23.7968 18.096 23.2033 18.096 22.8372 18.4621C22.471 18.8283 22.471 19.4218 22.8372 19.7879L24.0872 21.0379C24.4532 21.4041 25.0468 21.4041 25.413 21.0379ZM7.91297 18.5379L9.16297 17.2879C9.52909 16.9218 9.52909 16.3282 9.16297 15.9621C8.79684 15.596 8.20328 15.596 7.83715 15.9621L6.58715 17.2121C6.22103 17.5783 6.22103 18.1718 6.58715 18.5379C6.95322 18.9041 7.54684 18.9041 7.91297 18.5379ZM11 9.90625C9.70765 9.90625 8.65628 10.9577 8.65628 12.25C8.65628 13.5423 9.70765 14.5938 11 14.5938C12.2924 14.5938 13.3438 13.5423 13.3438 12.25C13.3438 10.9577 12.2924 9.90625 11 9.90625ZM17.5625 7.25C17.5625 6.73225 17.1428 6.3125 16.625 6.3125H14.75C14.2323 6.3125 13.8125 6.73225 13.8125 7.25C13.8125 7.76775 14.2323 8.1875 14.75 8.1875H16.625C17.1428 8.1875 17.5625 7.76775 17.5625 7.25Z" fill="#163300"/>
</svg>