<svg xmlns="http://www.w3.org/2000/svg" width="16" height="16" viewBox="0 0 16 16" fill="none">
  <g clip-path="url(#clip0_27_155)">
    <path d="M11.3125 0H4.6875C2.09875 0 0 2.09875 0 4.6875V11.3125C0 13.9012 2.09875 16 4.6875 16H11.3125C13.9012 16 16 13.9012 16 11.3125V4.6875C16 2.09875 13.9012 0 11.3125 0ZM12.5312 8C12.5312 8.43156 12.1816 8.78125 11.75 8.78125H8.78125V11.75C8.78125 12.1816 8.43156 12.5312 8 12.5312C7.56844 12.5312 7.21875 12.1816 7.21875 11.75V8.78125H4.25C3.81844 8.78125 3.46875 8.43156 3.46875 8C3.46875 7.56844 3.81844 7.21875 4.25 7.21875H7.21875V4.25C7.21875 3.81844 7.56844 3.46875 8 3.46875C8.43156 3.46875 8.78125 3.81844 8.78125 4.25V7.21875H11.75C12.1816 7.21875 12.5312 7.56844 12.5312 8Z" fill="#2F590F"/>
  </g>
  <defs>
    <clipPath id="clip0_27_155">
      <rect width="16" height="16" fill="white"/>
    </clipPath>
  </defs>
</svg>