<svg xmlns="http://www.w3.org/2000/svg" width="24" height="24" viewBox="0 0 24 24" fill="none">
  <path d="M22.3875 1.79532C22.3688 1.71094 22.3032 1.64532 22.2235 1.62188C19.4766 0.951569 13.1344 3.34219 9.69847 6.77813C9.0844 7.38751 8.52659 8.04844 8.02972 8.75157C6.97034 8.65782 5.91097 8.73751 5.00628 9.13126C2.45628 10.2516 1.71565 13.1813 1.50472 14.4375C1.46253 14.6813 1.62659 14.9156 1.87503 14.9578C1.91722 14.9625 1.9594 14.9672 2.00159 14.9625L6.09378 14.5125C6.09847 14.8219 6.11722 15.1313 6.15003 15.4359C6.16878 15.6469 6.26722 15.8484 6.41722 15.9984L8.00159 17.5781C8.15159 17.7281 8.35315 17.8266 8.56409 17.8453C8.86878 17.8781 9.17347 17.8969 9.48284 17.9016L9.03284 21.9891C9.00472 22.2375 9.18753 22.4625 9.43597 22.4859C9.47815 22.4906 9.52034 22.4906 9.55784 22.4813C10.8141 22.2797 13.7485 21.5391 14.8641 18.9891C15.2578 18.0844 15.3375 17.0297 15.2485 15.975C15.9563 15.4781 16.6172 14.9156 17.2266 14.3063C20.6719 10.8797 23.0485 4.67813 22.3875 1.79532ZM16.9641 10.2141C16.0875 11.0906 14.6625 11.0953 13.786 10.2141C12.9047 9.33751 12.9047 7.91251 13.786 7.03126C14.6625 6.15001 16.0875 6.15001 16.9688 7.03126C17.8453 7.91251 17.8453 9.33751 16.9641 10.2141Z" fill="#8CE339"/>
  <path d="M7.89375 18.7219C7.63594 18.9797 7.22344 19.0781 6.72656 19.1672C5.61094 19.3547 4.62656 18.3938 4.82812 17.2688C4.90313 16.8422 5.13281 16.2422 5.27344 16.1016C5.35313 16.0219 5.35781 15.8906 5.27812 15.8109C5.23125 15.7641 5.17031 15.7406 5.10469 15.75C4.48125 15.825 3.9 16.1109 3.45938 16.5516C2.35313 17.6578 2.25 21.75 2.25 21.75C2.25 21.75 6.34687 21.6469 7.44844 20.5406C7.89375 20.0953 8.175 19.5188 8.25 18.8906C8.26875 18.6984 8.02969 18.5813 7.89375 18.7219Z" fill="#8CE339"/>
</svg>