<svg width="550" height="537" viewBox="0 0 550 537" fill="none" xmlns="http://www.w3.org/2000/svg">
<circle opacity="0.08" cx="268.141" cy="268.583" r="267.337" stroke="url(#paint0_angular_5_38118)" stroke-width="1.60804"/>
<g filter="url(#filter0_b_5_38118)">
<circle cx="535.879" cy="268.583" r="13.2663" fill="#F1D789" fill-opacity="0.2"/>
</g>
<g filter="url(#filter1_b_5_38118)">
<circle cx="535.879" cy="268.583" r="11.3711" fill="#F1D789" fill-opacity="0.4"/>
</g>
<g filter="url(#filter2_i_5_38118)">
<g filter="url(#filter3_i_5_38118)">
<circle cx="535.879" cy="268.583" r="9.47595" fill="url(#paint1_linear_5_38118)"/>
</g>
</g>
<g clip-path="url(#clip0_5_38118)">
<g filter="url(#filter4_bdii_5_38118)">
<path d="M539.747 266.271H539.298C539.298 266.271 539.297 266.272 539.297 266.272C539.297 266.272 539.296 266.273 539.296 266.273V272C539.296 272.16 539.36 272.313 539.473 272.427C539.586 272.54 539.739 272.603 539.899 272.603C540.059 272.603 540.213 272.54 540.326 272.427C540.439 272.313 540.502 272.16 540.502 272V267.027C540.502 266.827 540.423 266.634 540.281 266.493C540.139 266.351 539.947 266.271 539.747 266.271Z" fill="#C85F09"/>
</g>
<g filter="url(#filter5_dii_5_38118)">
<path d="M538.693 272V265.518C538.693 265.419 538.674 265.321 538.636 265.229C538.598 265.138 538.542 265.055 538.472 264.985C538.402 264.915 538.319 264.859 538.228 264.822C538.136 264.784 538.038 264.764 537.939 264.764H532.814C532.614 264.764 532.422 264.844 532.281 264.985C532.139 265.126 532.06 265.318 532.06 265.518V272.151C532.06 272.431 532.171 272.699 532.369 272.897C532.567 273.095 532.835 273.206 533.115 273.206H539.576C539.579 273.206 539.582 273.206 539.584 273.205C539.587 273.204 539.589 273.202 539.591 273.2C539.593 273.198 539.595 273.196 539.596 273.193C539.597 273.19 539.598 273.188 539.598 273.185C539.598 273.18 539.596 273.175 539.593 273.172C539.59 273.168 539.586 273.165 539.582 273.164C539.327 273.094 539.102 272.942 538.941 272.732C538.781 272.522 538.694 272.265 538.693 272ZM533.266 266.573C533.266 266.493 533.298 266.417 533.354 266.36C533.411 266.303 533.488 266.272 533.568 266.272H534.774C534.854 266.272 534.93 266.303 534.987 266.36C535.043 266.417 535.075 266.493 535.075 266.573V267.779C535.075 267.859 535.043 267.936 534.987 267.992C534.93 268.049 534.854 268.081 534.774 268.081H533.568C533.488 268.081 533.411 268.049 533.354 267.992C533.298 267.936 533.266 267.859 533.266 267.779V266.573ZM537.186 271.699H533.576C533.414 271.699 533.275 271.574 533.266 271.412C533.265 271.371 533.271 271.33 533.285 271.292C533.299 271.254 533.321 271.219 533.349 271.189C533.378 271.16 533.411 271.136 533.449 271.12C533.486 271.104 533.527 271.096 533.568 271.096H537.177C537.339 271.096 537.479 271.221 537.487 271.383C537.489 271.424 537.482 271.464 537.468 271.503C537.454 271.541 537.432 271.576 537.404 271.605C537.376 271.635 537.342 271.658 537.304 271.674C537.267 271.691 537.227 271.699 537.186 271.699ZM537.186 270.493H533.576C533.414 270.493 533.275 270.368 533.266 270.206C533.265 270.165 533.271 270.124 533.285 270.086C533.299 270.048 533.321 270.013 533.349 269.983C533.378 269.954 533.411 269.93 533.449 269.914C533.486 269.898 533.527 269.89 533.568 269.89H537.177C537.339 269.89 537.479 270.015 537.487 270.177C537.489 270.218 537.482 270.258 537.468 270.297C537.454 270.335 537.432 270.37 537.404 270.399C537.376 270.429 537.342 270.452 537.304 270.468C537.267 270.485 537.227 270.493 537.186 270.493ZM537.186 269.287H533.576C533.414 269.287 533.275 269.162 533.266 269C533.265 268.959 533.271 268.918 533.285 268.88C533.299 268.842 533.321 268.807 533.349 268.777C533.378 268.748 533.411 268.724 533.449 268.708C533.486 268.692 533.527 268.684 533.568 268.684H537.177C537.339 268.684 537.479 268.809 537.487 268.971C537.489 269.012 537.482 269.052 537.468 269.091C537.454 269.129 537.432 269.164 537.404 269.193C537.376 269.223 537.342 269.246 537.304 269.262C537.267 269.278 537.227 269.287 537.186 269.287ZM537.186 268.081H535.988C535.826 268.081 535.687 267.956 535.679 267.794C535.677 267.753 535.683 267.712 535.697 267.674C535.711 267.636 535.733 267.601 535.761 267.571C535.79 267.542 535.823 267.518 535.861 267.502C535.898 267.486 535.939 267.478 535.98 267.478H537.177C537.339 267.478 537.479 267.602 537.487 267.765C537.489 267.805 537.482 267.846 537.468 267.884C537.454 267.923 537.432 267.958 537.404 267.987C537.376 268.017 537.342 268.04 537.304 268.056C537.267 268.072 537.227 268.081 537.186 268.081ZM537.186 266.875H535.988C535.826 266.875 535.687 266.75 535.679 266.588C535.677 266.547 535.683 266.506 535.697 266.468C535.711 266.43 535.733 266.395 535.761 266.365C535.79 266.336 535.823 266.312 535.861 266.296C535.898 266.28 535.939 266.272 535.98 266.272H537.177C537.339 266.272 537.479 266.396 537.487 266.559C537.489 266.599 537.482 266.64 537.468 266.678C537.454 266.717 537.432 266.752 537.404 266.781C537.376 266.811 537.342 266.834 537.304 266.85C537.267 266.866 537.227 266.875 537.186 266.875Z" fill="#C85F09"/>
</g>
</g>
<defs>
<filter id="filter0_b_5_38118" x="501.766" y="234.47" width="68.2269" height="68.2269" filterUnits="userSpaceOnUse" color-interpolation-filters="sRGB">
<feFlood flood-opacity="0" result="BackgroundImageFix"/>
<feGaussianBlur in="BackgroundImageFix" stdDeviation="10.4235"/>
<feComposite in2="SourceAlpha" operator="in" result="effect1_backgroundBlur_5_38118"/>
<feBlend mode="normal" in="SourceGraphic" in2="effect1_backgroundBlur_5_38118" result="shape"/>
</filter>
<filter id="filter1_b_5_38118" x="516.927" y="249.631" width="37.9037" height="37.9037" filterUnits="userSpaceOnUse" color-interpolation-filters="sRGB">
<feFlood flood-opacity="0" result="BackgroundImageFix"/>
<feGaussianBlur in="BackgroundImageFix" stdDeviation="3.79038"/>
<feComposite in2="SourceAlpha" operator="in" result="effect1_backgroundBlur_5_38118"/>
<feBlend mode="normal" in="SourceGraphic" in2="effect1_backgroundBlur_5_38118" result="shape"/>
</filter>
<filter id="filter2_i_5_38118" x="524.508" y="257.212" width="20.8471" height="20.8469" filterUnits="userSpaceOnUse" color-interpolation-filters="sRGB">
<feFlood flood-opacity="0" result="BackgroundImageFix"/>
<feBlend mode="normal" in="SourceGraphic" in2="BackgroundImageFix" result="shape"/>
<feColorMatrix in="SourceAlpha" type="matrix" values="0 0 0 0 0 0 0 0 0 0 0 0 0 0 0 0 0 0 127 0" result="hardAlpha"/>
<feOffset dx="-1.89519" dy="-1.89519"/>
<feGaussianBlur stdDeviation="1.89519"/>
<feComposite in2="hardAlpha" operator="arithmetic" k2="-1" k3="1"/>
<feColorMatrix type="matrix" values="0 0 0 0 0.925 0 0 0 0 0.925 0 0 0 0 0.925 0 0 0 0.25 0"/>
<feBlend mode="normal" in2="shape" result="effect1_innerShadow_5_38118"/>
</filter>
<filter id="filter3_i_5_38118" x="526.403" y="259.107" width="18.9519" height="18.9517" filterUnits="userSpaceOnUse" color-interpolation-filters="sRGB">
<feFlood flood-opacity="0" result="BackgroundImageFix"/>
<feBlend mode="normal" in="SourceGraphic" in2="BackgroundImageFix" result="shape"/>
<feColorMatrix in="SourceAlpha" type="matrix" values="0 0 0 0 0 0 0 0 0 0 0 0 0 0 0 0 0 0 127 0" result="hardAlpha"/>
<feOffset/>
<feGaussianBlur stdDeviation="1.89519"/>
<feComposite in2="hardAlpha" operator="arithmetic" k2="-1" k3="1"/>
<feColorMatrix type="matrix" values="0 0 0 0 1 0 0 0 0 1 0 0 0 0 1 0 0 0 0.25 0"/>
<feBlend mode="normal" in2="shape" result="effect1_innerShadow_5_38118"/>
</filter>
<filter id="filter4_bdii_5_38118" x="530.682" y="257.657" width="18.4351" height="32.175" filterUnits="userSpaceOnUse" color-interpolation-filters="sRGB">
<feFlood flood-opacity="0" result="BackgroundImageFix"/>
<feGaussianBlur in="BackgroundImageFix" stdDeviation="4.30725"/>
<feComposite in2="SourceAlpha" operator="in" result="effect1_backgroundBlur_5_38118"/>
<feColorMatrix in="SourceAlpha" type="matrix" values="0 0 0 0 0 0 0 0 0 0 0 0 0 0 0 0 0 0 127 0" result="hardAlpha"/>
<feOffset dy="8.6145"/>
<feGaussianBlur stdDeviation="4.30725"/>
<feComposite in2="hardAlpha" operator="out"/>
<feColorMatrix type="matrix" values="0 0 0 0 0.933333 0 0 0 0 0.933333 0 0 0 0 0.933333 0 0 0 0.25 0"/>
<feBlend mode="normal" in2="effect1_backgroundBlur_5_38118" result="effect2_dropShadow_5_38118"/>
<feBlend mode="normal" in="SourceGraphic" in2="effect2_dropShadow_5_38118" result="shape"/>
<feColorMatrix in="SourceAlpha" type="matrix" values="0 0 0 0 0 0 0 0 0 0 0 0 0 0 0 0 0 0 127 0" result="hardAlpha"/>
<feOffset/>
<feGaussianBlur stdDeviation="0.40201"/>
<feComposite in2="hardAlpha" operator="arithmetic" k2="-1" k3="1"/>
<feColorMatrix type="matrix" values="0 0 0 0 0.254489 0 0 0 0 0.269535 0 0 0 0 0.0438452 0 0 0 0.32 0"/>
<feBlend mode="normal" in2="shape" result="effect3_innerShadow_5_38118"/>
<feColorMatrix in="SourceAlpha" type="matrix" values="0 0 0 0 0 0 0 0 0 0 0 0 0 0 0 0 0 0 127 0" result="hardAlpha"/>
<feOffset dy="0.80402"/>
<feGaussianBlur stdDeviation="1.60804"/>
<feComposite in2="hardAlpha" operator="arithmetic" k2="-1" k3="1"/>
<feColorMatrix type="matrix" values="0 0 0 0 0.337255 0 0 0 0 0.21281 0 0 0 0 0.117647 0 0 0 0.24 0"/>
<feBlend mode="normal" in2="effect3_innerShadow_5_38118" result="effect4_innerShadow_5_38118"/>
</filter>
<filter id="filter5_dii_5_38118" x="523.446" y="264.764" width="24.7666" height="25.6714" filterUnits="userSpaceOnUse" color-interpolation-filters="sRGB">
<feFlood flood-opacity="0" result="BackgroundImageFix"/>
<feColorMatrix in="SourceAlpha" type="matrix" values="0 0 0 0 0 0 0 0 0 0 0 0 0 0 0 0 0 0 127 0" result="hardAlpha"/>
<feOffset dy="8.6145"/>
<feGaussianBlur stdDeviation="4.30725"/>
<feComposite in2="hardAlpha" operator="out"/>
<feColorMatrix type="matrix" values="0 0 0 0 0.933333 0 0 0 0 0.933333 0 0 0 0 0.933333 0 0 0 0.25 0"/>
<feBlend mode="normal" in2="BackgroundImageFix" result="effect1_dropShadow_5_38118"/>
<feBlend mode="normal" in="SourceGraphic" in2="effect1_dropShadow_5_38118" result="shape"/>
<feColorMatrix in="SourceAlpha" type="matrix" values="0 0 0 0 0 0 0 0 0 0 0 0 0 0 0 0 0 0 127 0" result="hardAlpha"/>
<feOffset/>
<feGaussianBlur stdDeviation="0.40201"/>
<feComposite in2="hardAlpha" operator="arithmetic" k2="-1" k3="1"/>
<feColorMatrix type="matrix" values="0 0 0 0 0.254489 0 0 0 0 0.269535 0 0 0 0 0.0438452 0 0 0 0.32 0"/>
<feBlend mode="normal" in2="shape" result="effect2_innerShadow_5_38118"/>
<feColorMatrix in="SourceAlpha" type="matrix" values="0 0 0 0 0 0 0 0 0 0 0 0 0 0 0 0 0 0 127 0" result="hardAlpha"/>
<feOffset dy="0.80402"/>
<feGaussianBlur stdDeviation="1.60804"/>
<feComposite in2="hardAlpha" operator="arithmetic" k2="-1" k3="1"/>
<feColorMatrix type="matrix" values="0 0 0 0 0.337255 0 0 0 0 0.21281 0 0 0 0 0.117647 0 0 0 0.24 0"/>
<feBlend mode="normal" in2="effect2_innerShadow_5_38118" result="effect3_innerShadow_5_38118"/>
</filter>
<radialGradient id="paint0_angular_5_38118" cx="0" cy="0" r="1" gradientUnits="userSpaceOnUse" gradientTransform="translate(268.141 268.583) rotate(90) scale(268.141)">
<stop offset="0.250327" stop-color="#272731"/>
<stop offset="0.49793" stop-color="#272731" stop-opacity="0"/>
<stop offset="0.74972" stop-color="#272731"/>
<stop offset="1" stop-color="#272731" stop-opacity="0"/>
</radialGradient>
<linearGradient id="paint1_linear_5_38118" x1="530.194" y1="261.003" x2="538.722" y2="277.586" gradientUnits="userSpaceOnUse">
<stop stop-color="#F7DBA3"/>
<stop offset="0.343145" stop-color="#F2B738"/>
<stop offset="0.656627" stop-color="#E97D25"/>
<stop offset="1" stop-color="#C85F09"/>
</linearGradient>
<clipPath id="clip0_5_38118">
<rect width="9.64824" height="9.64824" fill="white" transform="translate(531.457 264.161)"/>
</clipPath>
</defs>
</svg>
