<svg width="382" height="382" viewBox="0 0 382 382" fill="none" xmlns="http://www.w3.org/2000/svg">
<circle opacity="0.08" cx="190.553" cy="190.985" r="189.749" stroke="url(#paint0_angular_5_38073)" stroke-width="1.60804"/>
<g filter="url(#filter0_b_5_38073)">
<circle cx="96.4826" cy="351.789" r="29.7487" fill="#FFCB60" fill-opacity="0.16"/>
</g>
<g filter="url(#filter1_b_5_38073)">
<circle cx="96.4828" cy="351.788" r="25.4989" fill="#FFCB60" fill-opacity="0.24"/>
</g>
<g filter="url(#filter2_i_5_38073)">
<g filter="url(#filter3_ii_5_38073)">
<circle cx="96.483" cy="351.789" r="21.2491" fill="url(#paint1_linear_5_38073)"/>
</g>
</g>
<g clip-path="url(#clip0_5_38073)">
<g filter="url(#filter4_iii_5_38073)">
<path d="M107.289 347.115L101.15 340.968C100.572 340.387 99.5567 340.387 98.9792 340.968L96.9331 343.016C96.6428 343.306 96.4829 343.692 96.4829 344.104C96.4829 344.515 96.6428 344.901 96.9326 345.19L103.072 351.338C103.361 351.628 103.747 351.788 104.158 351.788C104.568 351.788 104.954 351.628 105.243 351.338L107.289 349.289C107.579 349 107.739 348.613 107.739 348.202C107.739 347.791 107.579 347.405 107.289 347.115Z" fill="url(#paint2_linear_5_38073)"/>
</g>
<g filter="url(#filter5_iii_5_38073)">
<path d="M96.5049 346.218C96.337 346.05 96.0762 346.02 95.8758 346.144C94.3818 347.06 92.0414 348.151 89.3753 348.151C89.147 348.151 88.9461 348.303 88.8831 348.523L85.2462 361.252C85.1817 361.479 85.2801 361.72 85.485 361.837C85.6893 361.953 85.9482 361.916 86.11 361.744L92.1963 355.3C92.4007 355.083 92.4971 354.778 92.4606 354.462C92.3901 353.844 92.673 353.281 93.2166 352.956C93.6942 352.671 94.3283 352.685 94.7985 352.989C95.2057 353.255 95.4575 353.66 95.5065 354.13C95.5549 354.593 95.394 355.048 95.0653 355.376C94.736 355.706 94.2803 355.862 93.8076 355.809C93.4853 355.771 93.1896 355.868 92.9717 356.075L86.5273 362.161C86.3559 362.323 86.3175 362.581 86.4339 362.786C86.5268 362.949 86.6982 363.045 86.8786 363.045C86.925 363.045 86.9725 363.038 87.019 363.025L99.7486 359.388C99.9685 359.325 100.12 359.124 100.12 358.896C100.12 356.23 101.212 353.889 102.128 352.395C102.251 352.194 102.22 351.934 102.053 351.766L96.5049 346.218Z" fill="url(#paint3_linear_5_38073)"/>
</g>
</g>
<g filter="url(#filter6_b_5_38073)">
<circle cx="326.432" cy="61.5375" r="26.5327" fill="#181920" fill-opacity="0.12"/>
</g>
<g filter="url(#filter7_b_5_38073)">
<circle cx="326.432" cy="61.5377" r="22.7423" fill="#14151B" fill-opacity="0.16"/>
</g>
<g filter="url(#filter8_i_5_38073)">
<circle cx="326.432" cy="61.5374" r="18.9519" fill="#1F2125"/>
</g>
<g filter="url(#filter9_dii_5_38073)">
<path d="M337.405 59.2745C337.966 57.5755 337.773 55.7145 336.876 54.1692C335.528 51.799 332.817 50.5795 330.17 51.1534C328.993 49.8139 327.301 49.0522 325.527 49.0631C322.821 49.0569 320.421 50.8158 319.588 53.4152C317.85 53.7747 316.35 54.8733 315.472 56.4302C314.114 58.7942 314.423 61.7741 316.238 63.8013C315.677 65.5002 315.87 67.3613 316.767 68.9065C318.115 71.2768 320.825 72.4962 323.472 71.9223C324.649 73.2618 326.342 74.0235 328.116 74.0118C330.823 74.0189 333.224 72.2583 334.057 69.6566C335.795 69.2972 337.295 68.1986 338.173 66.6416C339.53 64.2776 339.22 61.3001 337.406 59.2729L337.405 59.2745ZM328.117 72.3816C327.034 72.3831 325.984 72.0003 325.153 71.2994C325.191 71.2791 325.256 71.2425 325.299 71.216L330.219 68.3468C330.471 68.2026 330.625 67.932 330.624 67.6397V60.6358L332.703 61.8482C332.726 61.8591 332.74 61.8809 332.743 61.9059V67.7059C332.74 70.285 330.672 72.3761 328.117 72.3816ZM318.168 68.091C317.625 67.1445 317.43 66.035 317.616 64.9583C317.652 64.9801 317.717 65.0199 317.762 65.0464L322.682 67.9156C322.932 68.063 323.241 68.063 323.491 67.9156L329.498 64.4133V66.8381C329.499 66.863 329.488 66.8872 329.468 66.9028L324.495 69.8024C322.279 71.0904 319.449 70.3248 318.168 68.091ZM316.873 57.2465C317.414 56.2985 318.267 55.5733 319.283 55.1968C319.283 55.2396 319.281 55.3153 319.281 55.3683V61.1075C319.279 61.3991 319.434 61.6696 319.685 61.8139L325.692 65.3154L323.612 66.5278C323.591 66.5418 323.565 66.5441 323.542 66.534L318.567 63.6321C316.357 62.3394 315.598 59.4834 316.873 57.2473L316.873 57.2465ZM333.959 61.2611L327.952 57.7588L330.031 56.5472C330.052 56.5331 330.078 56.5308 330.102 56.5409L335.076 59.4405C337.291 60.7324 338.05 63.5931 336.77 65.8292C336.229 66.7757 335.376 67.5008 334.361 67.8782V61.9675C334.363 61.6759 334.209 61.4061 333.959 61.2611ZM336.028 58.1159C335.992 58.0932 335.928 58.0543 335.882 58.0277L330.962 55.1586C330.712 55.0112 330.404 55.0112 330.153 55.1586L324.147 58.6608V56.236C324.145 56.2111 324.157 56.1869 324.176 56.1713L329.15 53.2741C331.365 51.9837 334.197 52.7517 335.475 54.9894C336.014 55.9344 336.21 57.0407 336.027 58.1159H336.028ZM323.016 62.4376L320.936 61.2252C320.913 61.2143 320.899 61.1925 320.896 61.1675V55.3675C320.897 52.7852 322.972 50.6926 325.53 50.6941C326.611 50.6941 327.658 51.0777 328.49 51.7763C328.452 51.7966 328.387 51.8332 328.344 51.8597L323.424 54.729C323.172 54.8732 323.018 55.143 323.019 55.4353L323.016 62.436V62.4376ZM324.146 59.9785L326.821 58.4184L329.497 59.9777V63.0972L326.821 64.6565L324.146 63.0972V59.9785Z" fill="#A1A1AA"/>
</g>
<defs>
<filter id="filter0_b_5_38073" x="19.9859" y="275.292" width="152.994" height="152.994" filterUnits="userSpaceOnUse" color-interpolation-filters="sRGB">
<feFlood flood-opacity="0" result="BackgroundImageFix"/>
<feGaussianBlur in="BackgroundImageFix" stdDeviation="23.374"/>
<feComposite in2="SourceAlpha" operator="in" result="effect1_backgroundBlur_5_38073"/>
<feBlend mode="normal" in="SourceGraphic" in2="effect1_backgroundBlur_5_38073" result="shape"/>
</filter>
<filter id="filter1_b_5_38073" x="24.2359" y="279.542" width="144.494" height="144.494" filterUnits="userSpaceOnUse" color-interpolation-filters="sRGB">
<feFlood flood-opacity="0" result="BackgroundImageFix"/>
<feGaussianBlur in="BackgroundImageFix" stdDeviation="23.374"/>
<feComposite in2="SourceAlpha" operator="in" result="effect1_backgroundBlur_5_38073"/>
<feBlend mode="normal" in="SourceGraphic" in2="effect1_backgroundBlur_5_38073" result="shape"/>
</filter>
<filter id="filter2_i_5_38073" x="70.9841" y="326.29" width="46.7479" height="46.7479" filterUnits="userSpaceOnUse" color-interpolation-filters="sRGB">
<feFlood flood-opacity="0" result="BackgroundImageFix"/>
<feBlend mode="normal" in="SourceGraphic" in2="BackgroundImageFix" result="shape"/>
<feColorMatrix in="SourceAlpha" type="matrix" values="0 0 0 0 0 0 0 0 0 0 0 0 0 0 0 0 0 0 127 0" result="hardAlpha"/>
<feOffset dx="-4.24982" dy="-4.24982"/>
<feGaussianBlur stdDeviation="4.24982"/>
<feComposite in2="hardAlpha" operator="arithmetic" k2="-1" k3="1"/>
<feColorMatrix type="matrix" values="0 0 0 0 0.925 0 0 0 0 0.925 0 0 0 0 0.925 0 0 0 0.25 0"/>
<feBlend mode="normal" in2="shape" result="effect1_innerShadow_5_38073"/>
</filter>
<filter id="filter3_ii_5_38073" x="75.2339" y="330.54" width="42.498" height="42.498" filterUnits="userSpaceOnUse" color-interpolation-filters="sRGB">
<feFlood flood-opacity="0" result="BackgroundImageFix"/>
<feBlend mode="normal" in="SourceGraphic" in2="BackgroundImageFix" result="shape"/>
<feColorMatrix in="SourceAlpha" type="matrix" values="0 0 0 0 0 0 0 0 0 0 0 0 0 0 0 0 0 0 127 0" result="hardAlpha"/>
<feMorphology radius="1.60804" operator="erode" in="SourceAlpha" result="effect1_innerShadow_5_38073"/>
<feOffset/>
<feGaussianBlur stdDeviation="1.60804"/>
<feComposite in2="hardAlpha" operator="arithmetic" k2="-1" k3="1"/>
<feColorMatrix type="matrix" values="0 0 0 0 1 0 0 0 0 1 0 0 0 0 1 0 0 0 0.72 0"/>
<feBlend mode="normal" in2="shape" result="effect1_innerShadow_5_38073"/>
<feColorMatrix in="SourceAlpha" type="matrix" values="0 0 0 0 0 0 0 0 0 0 0 0 0 0 0 0 0 0 127 0" result="hardAlpha"/>
<feMorphology radius="0.40201" operator="erode" in="SourceAlpha" result="effect2_innerShadow_5_38073"/>
<feOffset/>
<feGaussianBlur stdDeviation="0.80402"/>
<feComposite in2="hardAlpha" operator="arithmetic" k2="-1" k3="1"/>
<feColorMatrix type="matrix" values="0 0 0 0 1 0 0 0 0 0.666004 0 0 0 0 0.169524 0 0 0 1 0"/>
<feBlend mode="normal" in2="effect1_innerShadow_5_38073" result="effect2_innerShadow_5_38073"/>
</filter>
<filter id="filter4_iii_5_38073" x="96.4829" y="338.924" width="11.2563" height="16.0805" filterUnits="userSpaceOnUse" color-interpolation-filters="sRGB">
<feFlood flood-opacity="0" result="BackgroundImageFix"/>
<feBlend mode="normal" in="SourceGraphic" in2="BackgroundImageFix" result="shape"/>
<feColorMatrix in="SourceAlpha" type="matrix" values="0 0 0 0 0 0 0 0 0 0 0 0 0 0 0 0 0 0 127 0" result="hardAlpha"/>
<feOffset dy="3.21608"/>
<feGaussianBlur stdDeviation="1.60804"/>
<feComposite in2="hardAlpha" operator="arithmetic" k2="-1" k3="1"/>
<feColorMatrix type="matrix" values="0 0 0 0 0 0 0 0 0 0 0 0 0 0 0 0 0 0 0.04 0"/>
<feBlend mode="normal" in2="shape" result="effect1_innerShadow_5_38073"/>
<feColorMatrix in="SourceAlpha" type="matrix" values="0 0 0 0 0 0 0 0 0 0 0 0 0 0 0 0 0 0 127 0" result="hardAlpha"/>
<feOffset dy="-1.60804"/>
<feGaussianBlur stdDeviation="1.60804"/>
<feComposite in2="hardAlpha" operator="arithmetic" k2="-1" k3="1"/>
<feColorMatrix type="matrix" values="0 0 0 0 0 0 0 0 0 0 0 0 0 0 0 0 0 0 0.12 0"/>
<feBlend mode="normal" in2="effect1_innerShadow_5_38073" result="effect2_innerShadow_5_38073"/>
<feColorMatrix in="SourceAlpha" type="matrix" values="0 0 0 0 0 0 0 0 0 0 0 0 0 0 0 0 0 0 127 0" result="hardAlpha"/>
<feOffset/>
<feGaussianBlur stdDeviation="0.80402"/>
<feComposite in2="hardAlpha" operator="arithmetic" k2="-1" k3="1"/>
<feColorMatrix type="matrix" values="0 0 0 0 0.631373 0 0 0 0 0.431373 0 0 0 0 0.105882 0 0 0 0.5 0"/>
<feBlend mode="normal" in2="effect2_innerShadow_5_38073" result="effect3_innerShadow_5_38073"/>
</filter>
<filter id="filter5_iii_5_38073" x="85.2266" y="344.46" width="16.9766" height="21.8007" filterUnits="userSpaceOnUse" color-interpolation-filters="sRGB">
<feFlood flood-opacity="0" result="BackgroundImageFix"/>
<feBlend mode="normal" in="SourceGraphic" in2="BackgroundImageFix" result="shape"/>
<feColorMatrix in="SourceAlpha" type="matrix" values="0 0 0 0 0 0 0 0 0 0 0 0 0 0 0 0 0 0 127 0" result="hardAlpha"/>
<feOffset dy="-1.60804"/>
<feGaussianBlur stdDeviation="1.60804"/>
<feComposite in2="hardAlpha" operator="arithmetic" k2="-1" k3="1"/>
<feColorMatrix type="matrix" values="0 0 0 0 0 0 0 0 0 0 0 0 0 0 0 0 0 0 0.12 0"/>
<feBlend mode="normal" in2="shape" result="effect1_innerShadow_5_38073"/>
<feColorMatrix in="SourceAlpha" type="matrix" values="0 0 0 0 0 0 0 0 0 0 0 0 0 0 0 0 0 0 127 0" result="hardAlpha"/>
<feOffset dy="3.21608"/>
<feGaussianBlur stdDeviation="1.60804"/>
<feComposite in2="hardAlpha" operator="arithmetic" k2="-1" k3="1"/>
<feColorMatrix type="matrix" values="0 0 0 0 0 0 0 0 0 0 0 0 0 0 0 0 0 0 0.04 0"/>
<feBlend mode="normal" in2="effect1_innerShadow_5_38073" result="effect2_innerShadow_5_38073"/>
<feColorMatrix in="SourceAlpha" type="matrix" values="0 0 0 0 0 0 0 0 0 0 0 0 0 0 0 0 0 0 127 0" result="hardAlpha"/>
<feOffset/>
<feGaussianBlur stdDeviation="0.80402"/>
<feComposite in2="hardAlpha" operator="arithmetic" k2="-1" k3="1"/>
<feColorMatrix type="matrix" values="0 0 0 0 0.631373 0 0 0 0 0.431373 0 0 0 0 0.105882 0 0 0 0.5 0"/>
<feBlend mode="normal" in2="effect2_innerShadow_5_38073" result="effect3_innerShadow_5_38073"/>
</filter>
<filter id="filter6_b_5_38073" x="258.205" y="-6.6893" width="136.454" height="136.454" filterUnits="userSpaceOnUse" color-interpolation-filters="sRGB">
<feFlood flood-opacity="0" result="BackgroundImageFix"/>
<feGaussianBlur in="BackgroundImageFix" stdDeviation="20.8471"/>
<feComposite in2="SourceAlpha" operator="in" result="effect1_backgroundBlur_5_38073"/>
<feBlend mode="normal" in="SourceGraphic" in2="effect1_backgroundBlur_5_38073" result="shape"/>
</filter>
<filter id="filter7_b_5_38073" x="288.528" y="23.6339" width="75.8074" height="75.8074" filterUnits="userSpaceOnUse" color-interpolation-filters="sRGB">
<feFlood flood-opacity="0" result="BackgroundImageFix"/>
<feGaussianBlur in="BackgroundImageFix" stdDeviation="7.58076"/>
<feComposite in2="SourceAlpha" operator="in" result="effect1_backgroundBlur_5_38073"/>
<feBlend mode="normal" in="SourceGraphic" in2="effect1_backgroundBlur_5_38073" result="shape"/>
</filter>
<filter id="filter8_i_5_38073" x="303.69" y="38.7951" width="41.6942" height="41.6942" filterUnits="userSpaceOnUse" color-interpolation-filters="sRGB">
<feFlood flood-opacity="0" result="BackgroundImageFix"/>
<feBlend mode="normal" in="SourceGraphic" in2="BackgroundImageFix" result="shape"/>
<feColorMatrix in="SourceAlpha" type="matrix" values="0 0 0 0 0 0 0 0 0 0 0 0 0 0 0 0 0 0 127 0" result="hardAlpha"/>
<feOffset dx="-3.79038" dy="-3.79038"/>
<feGaussianBlur stdDeviation="3.79038"/>
<feComposite in2="hardAlpha" operator="arithmetic" k2="-1" k3="1"/>
<feColorMatrix type="matrix" values="0 0 0 0 0.925 0 0 0 0 0.925 0 0 0 0 0.925 0 0 0 0.25 0"/>
<feBlend mode="normal" in2="shape" result="effect1_innerShadow_5_38073"/>
</filter>
<filter id="filter9_dii_5_38073" x="306.016" y="49.063" width="41.6108" height="42.1782" filterUnits="userSpaceOnUse" color-interpolation-filters="sRGB">
<feFlood flood-opacity="0" result="BackgroundImageFix"/>
<feColorMatrix in="SourceAlpha" type="matrix" values="0 0 0 0 0 0 0 0 0 0 0 0 0 0 0 0 0 0 127 0" result="hardAlpha"/>
<feOffset dy="8.6145"/>
<feGaussianBlur stdDeviation="4.30725"/>
<feComposite in2="hardAlpha" operator="out"/>
<feColorMatrix type="matrix" values="0 0 0 0 0.933333 0 0 0 0 0.933333 0 0 0 0 0.933333 0 0 0 0.25 0"/>
<feBlend mode="normal" in2="BackgroundImageFix" result="effect1_dropShadow_5_38073"/>
<feBlend mode="normal" in="SourceGraphic" in2="effect1_dropShadow_5_38073" result="shape"/>
<feColorMatrix in="SourceAlpha" type="matrix" values="0 0 0 0 0 0 0 0 0 0 0 0 0 0 0 0 0 0 127 0" result="hardAlpha"/>
<feOffset/>
<feGaussianBlur stdDeviation="0.40201"/>
<feComposite in2="hardAlpha" operator="arithmetic" k2="-1" k3="1"/>
<feColorMatrix type="matrix" values="0 0 0 0 0.254489 0 0 0 0 0.269535 0 0 0 0 0.0438452 0 0 0 0.32 0"/>
<feBlend mode="normal" in2="shape" result="effect2_innerShadow_5_38073"/>
<feColorMatrix in="SourceAlpha" type="matrix" values="0 0 0 0 0 0 0 0 0 0 0 0 0 0 0 0 0 0 127 0" result="hardAlpha"/>
<feOffset dy="0.80402"/>
<feGaussianBlur stdDeviation="1.60804"/>
<feComposite in2="hardAlpha" operator="arithmetic" k2="-1" k3="1"/>
<feColorMatrix type="matrix" values="0 0 0 0 0.337255 0 0 0 0 0.21281 0 0 0 0 0.117647 0 0 0 0.24 0"/>
<feBlend mode="normal" in2="effect2_innerShadow_5_38073" result="effect3_innerShadow_5_38073"/>
</filter>
<radialGradient id="paint0_angular_5_38073" cx="0" cy="0" r="1" gradientUnits="userSpaceOnUse" gradientTransform="translate(190.553 190.985) rotate(90) scale(190.553)">
<stop offset="0.250327" stop-color="#272731"/>
<stop offset="0.49793" stop-color="#272731" stop-opacity="0"/>
<stop offset="0.74972" stop-color="#272731"/>
<stop offset="1" stop-color="#272731" stop-opacity="0"/>
</radialGradient>
<linearGradient id="paint1_linear_5_38073" x1="86.8349" y1="332.09" x2="105.327" y2="373.497" gradientUnits="userSpaceOnUse">
<stop stop-color="#F7DBA3"/>
<stop offset="0.47219" stop-color="#F2B738"/>
<stop offset="0.782416" stop-color="#E97D25"/>
<stop offset="1" stop-color="#C85F09"/>
</linearGradient>
<linearGradient id="paint2_linear_5_38073" x1="102.111" y1="340.532" x2="102.111" y2="351.788" gradientUnits="userSpaceOnUse">
<stop stop-color="#966729"/>
<stop offset="1" stop-color="#CF6E19" stop-opacity="0.5"/>
</linearGradient>
<linearGradient id="paint3_linear_5_38073" x1="93.7147" y1="346.068" x2="93.7147" y2="363.045" gradientUnits="userSpaceOnUse">
<stop stop-color="#966729"/>
<stop offset="1" stop-color="#CF6E19" stop-opacity="0.5"/>
</linearGradient>
<clipPath id="clip0_5_38073">
<rect width="22.5126" height="22.5126" fill="white" transform="translate(85.2266 340.532)"/>
</clipPath>
</defs>
</svg>
