<svg width="52" height="32" viewBox="0 0 52 32" fill="none" xmlns="http://www.w3.org/2000/svg">
<path d="M0 16C0 7.16344 7.16344 0 16 0H36C44.8366 0 52 7.16344 52 16C52 24.8366 44.8366 32 36 32H16C7.16344 32 0 24.8366 0 16Z" fill="#FF6600" fill-opacity="0.16"/>
<path d="M0.5 16C0.5 7.43959 7.43959 0.5 16 0.5H36C44.5604 0.5 51.5 7.43959 51.5 16C51.5 24.5604 44.5604 31.5 36 31.5H16C7.43959 31.5 0.5 24.5604 0.5 16Z" stroke="#FF6600" stroke-opacity="0.16"/>
<g clip-path="url(#clip0_15153_6635)">
<g filter="url(#filter0_ii_15153_6635)">
<circle cx="36" cy="16" r="12" fill="url(#paint0_linear_15153_6635)"/>
</g>
<g filter="url(#filter1_f_15153_6635)">
<path d="M19.094 22.0512C22.899 16.6249 30.3825 15.3107 35.8087 19.1158L37.7885 20.5041C40.3964 22.3328 41.028 25.9293 39.1993 28.5372L35.6208 33.6403L19.094 22.0512Z" fill="url(#paint1_linear_15153_6635)"/>
</g>
<g filter="url(#filter2_f_15153_6635)">
<path d="M33.5998 9.77585C34.9072 7.91143 37.4785 7.45988 39.3429 8.76727L43.5975 11.7508C45.2832 12.9328 45.6915 15.2576 44.5094 16.9433L44.2825 17.2669L33.5998 9.77585Z" fill="url(#paint2_linear_15153_6635)"/>
</g>
</g>
<defs>
<filter id="filter0_ii_15153_6635" x="24" y="4" width="24" height="28" filterUnits="userSpaceOnUse" color-interpolation-filters="sRGB">
<feFlood flood-opacity="0" result="BackgroundImageFix"/>
<feBlend mode="normal" in="SourceGraphic" in2="BackgroundImageFix" result="shape"/>
<feColorMatrix in="SourceAlpha" type="matrix" values="0 0 0 0 0 0 0 0 0 0 0 0 0 0 0 0 0 0 127 0" result="hardAlpha"/>
<feOffset dy="4"/>
<feGaussianBlur stdDeviation="2"/>
<feComposite in2="hardAlpha" operator="arithmetic" k2="-1" k3="1"/>
<feColorMatrix type="matrix" values="0 0 0 0 0 0 0 0 0 0 0 0 0 0 0 0 0 0 0.12 0"/>
<feBlend mode="normal" in2="shape" result="effect1_innerShadow_15153_6635"/>
<feColorMatrix in="SourceAlpha" type="matrix" values="0 0 0 0 0 0 0 0 0 0 0 0 0 0 0 0 0 0 127 0" result="hardAlpha"/>
<feOffset/>
<feGaussianBlur stdDeviation="2"/>
<feComposite in2="hardAlpha" operator="arithmetic" k2="-1" k3="1"/>
<feColorMatrix type="matrix" values="0 0 0 0 1 0 0 0 0 0.766667 0 0 0 0 0 0 0 0 0.5 0"/>
<feBlend mode="normal" in2="effect1_innerShadow_15153_6635" result="effect2_innerShadow_15153_6635"/>
</filter>
<filter id="filter1_f_15153_6635" x="9.49399" y="7.33982" width="40.3511" height="35.9006" filterUnits="userSpaceOnUse" color-interpolation-filters="sRGB">
<feFlood flood-opacity="0" result="BackgroundImageFix"/>
<feBlend mode="normal" in="SourceGraphic" in2="BackgroundImageFix" result="shape"/>
<feGaussianBlur stdDeviation="4.8" result="effect1_foregroundBlur_15153_6635"/>
</filter>
<filter id="filter2_f_15153_6635" x="28.7999" y="3.21965" width="21.1854" height="18.8473" filterUnits="userSpaceOnUse" color-interpolation-filters="sRGB">
<feFlood flood-opacity="0" result="BackgroundImageFix"/>
<feBlend mode="normal" in="SourceGraphic" in2="BackgroundImageFix" result="shape"/>
<feGaussianBlur stdDeviation="2.4" result="effect1_foregroundBlur_15153_6635"/>
</filter>
<linearGradient id="paint0_linear_15153_6635" x1="36" y1="4" x2="36" y2="28" gradientUnits="userSpaceOnUse">
<stop stop-color="#FF6600"/>
<stop offset="1" stop-color="#F1D789"/>
</linearGradient>
<linearGradient id="paint1_linear_15153_6635" x1="29.9997" y1="17.2" x2="34.7997" y2="30.4" gradientUnits="userSpaceOnUse">
<stop stop-color="#D98D22"/>
<stop offset="1" stop-color="#CF6E19" stop-opacity="0"/>
</linearGradient>
<linearGradient id="paint2_linear_15153_6635" x1="38.8701" y1="9.17712" x2="39.1259" y2="15.8755" gradientUnits="userSpaceOnUse">
<stop stop-color="#D98D22"/>
<stop offset="1" stop-color="#CF6E19" stop-opacity="0"/>
</linearGradient>
<clipPath id="clip0_15153_6635">
<rect x="24" y="4" width="24" height="24" rx="12" fill="white"/>
</clipPath>
</defs>
</svg>
