<svg width="126" height="32" viewBox="0 0 126 32" fill="none" xmlns="http://www.w3.org/2000/svg">
<path d="M26.7143 5.28571H22.4286V1H18.1429V5.28571H13.8571V1H9.57143V5.28571H5.28571V9.57143H1V13.8571H5.28571V18.1429H1V22.4286H5.28571V26.7143H9.57143V31H13.8571V26.7143H18.1429V31H22.4286V26.7143H26.7143V22.4286H31V18.1429H26.7143V13.8571H31V9.57143H26.7143V5.28571ZM13.8571 13.8571H18.1429V18.1429H13.8571V13.8571Z" fill="#FF306E"/>
<path d="M44.192 23.5L49.736 14.524L44.6 6.34H48.512L51.68 11.764H51.728L54.896 6.34H58.688L53.648 14.5L59.336 23.5H55.28L51.776 17.236H51.728L48.176 23.5H44.192ZM65.3009 23.86C63.3169 23.86 61.7569 23.252 60.6209 22.036C59.4849 20.804 58.9169 19.236 58.9169 17.332C58.9169 15.492 59.4849 13.956 60.6209 12.724C61.7569 11.476 63.2129 10.852 64.9889 10.852C66.9249 10.852 68.4209 11.524 69.4769 12.868C70.5329 14.212 71.0609 16.012 71.0609 18.268H62.1329C62.2609 19.244 62.5889 20.004 63.1169 20.548C63.6449 21.076 64.3649 21.34 65.2769 21.34C66.4769 21.34 67.2689 20.836 67.6529 19.828H70.8689C70.6289 20.98 70.0209 21.94 69.0449 22.708C68.0689 23.476 66.8209 23.86 65.3009 23.86ZM65.0369 13.372C63.4529 13.372 62.5009 14.252 62.1809 16.012H67.6529C67.6049 15.228 67.3409 14.596 66.8609 14.116C66.3809 13.62 65.7729 13.372 65.0369 13.372ZM71.6173 13.348V11.188H73.3213V7.348H76.5133V11.188H78.6253V13.348H76.5133V19.876C76.5133 20.692 76.9213 21.1 77.7373 21.1L78.6973 21.076V23.476C78.2013 23.508 77.5213 23.524 76.6573 23.524C75.7133 23.524 74.9213 23.3 74.2812 22.852C73.6413 22.388 73.3213 21.628 73.3213 20.572V13.348H71.6173ZM83.45 11.188V13.156H83.522C83.906 12.436 84.33 11.908 84.794 11.572C85.258 11.22 85.842 11.044 86.546 11.044C86.882 11.044 87.138 11.076 87.314 11.14V13.996H87.242C86.138 13.884 85.25 14.124 84.578 14.716C83.906 15.308 83.57 16.236 83.57 17.5V23.5H80.306V11.188H83.45ZM96.1205 23.5C95.9605 23.292 95.8325 22.836 95.7365 22.132H95.6885C95.3365 22.66 94.8885 23.068 94.3445 23.356C93.8005 23.644 93.0405 23.788 92.0645 23.788C90.7685 23.788 89.7285 23.46 88.9445 22.804C88.1605 22.148 87.7685 21.22 87.7685 20.02C87.7685 18.772 88.2005 17.86 89.0645 17.284C89.9285 16.692 91.1445 16.284 92.7125 16.06C93.8645 15.9 94.6485 15.74 95.0645 15.58C95.4805 15.404 95.6885 15.1 95.6885 14.668C95.6885 14.22 95.5125 13.868 95.1605 13.612C94.8085 13.34 94.2965 13.204 93.6245 13.204C92.1365 13.204 91.3445 13.78 91.2485 14.932H88.3445C88.3925 13.764 88.8645 12.796 89.7605 12.028C90.6565 11.26 91.9525 10.876 93.6485 10.876C97.1045 10.876 98.8325 12.388 98.8325 15.412V21.676C98.8325 22.604 98.9765 23.172 99.2645 23.38V23.5H96.1205ZM92.8565 21.508C93.7525 21.508 94.4565 21.276 94.9685 20.812C95.4965 20.348 95.7605 19.796 95.7605 19.156V17.308C95.4085 17.516 94.6485 17.756 93.4805 18.028C92.5525 18.236 91.8965 18.476 91.5125 18.748C91.1285 19.004 90.9365 19.404 90.9365 19.948C90.9365 20.988 91.5765 21.508 92.8565 21.508ZM103.955 23.5L109.931 6.34H113.531L119.579 23.5H115.955L114.803 19.852H108.611L107.483 23.5H103.955ZM110.963 12.244L109.427 17.188H113.963L112.427 12.244L111.731 9.604H111.683C111.395 10.756 111.155 11.636 110.963 12.244ZM121.047 23.5V6.34H124.527V23.5H121.047Z" fill="#1B1B1B"/>
</svg>
