<svg xmlns="http://www.w3.org/2000/svg" width="16" height="16" viewBox="0 0 16 16" fill="none">
  <path d="M9.02487 7.99995C9.02487 10.5092 7.00459 12.5434 4.51244 12.5434C2.02028 12.5434 0 10.5092 0 7.99995C0 5.4907 2.02028 3.45654 4.51244 3.45654C7.00456 3.45654 9.02487 5.4907 9.02487 7.99995Z" fill="white"/>
  <path d="M13.9753 7.99996C13.9753 10.362 12.9652 12.2768 11.7191 12.2768C10.473 12.2768 9.46289 10.362 9.46289 7.99996C9.46289 5.63793 10.473 3.72314 11.7191 3.72314C12.9652 3.72314 13.9753 5.63793 13.9753 7.99996Z" fill="white"/>
  <path d="M15.9996 8.00006C15.9996 10.1163 15.6443 11.8319 15.2061 11.8319C14.7678 11.8319 14.4126 10.1163 14.4126 8.00006C14.4126 5.88378 14.7678 4.16821 15.2061 4.16821C15.6443 4.16821 15.9996 5.88378 15.9996 8.00006Z" fill="white"/>
</svg>