<svg width="21" height="20" viewBox="0 0 21 20" fill="none" xmlns="http://www.w3.org/2000/svg">
<path d="M14.6667 2.0249H6.33342C3.83341 2.0249 2.16675 3.69157 2.16675 6.19157V11.1916C2.16675 13.6916 3.83341 15.3582 6.33342 15.3582V17.1332C6.33342 17.7999 7.07508 18.1999 7.62508 17.8249L11.3334 15.3582H14.6667C17.1667 15.3582 18.8334 13.6916 18.8334 11.1916V6.19157C18.8334 3.69157 17.1667 2.0249 14.6667 2.0249ZM10.5001 12.1666C10.1501 12.1666 9.87508 11.8832 9.87508 11.5416C9.87508 11.1999 10.1501 10.9166 10.5001 10.9166C10.8501 10.9166 11.1251 11.1999 11.1251 11.5416C11.1251 11.8832 10.8501 12.1666 10.5001 12.1666ZM11.5501 8.70824C11.2251 8.9249 11.1251 9.06657 11.1251 9.2999V9.4749C11.1251 9.81657 10.8417 10.0999 10.5001 10.0999C10.1584 10.0999 9.87508 9.81657 9.87508 9.4749V9.2999C9.87508 8.33324 10.5834 7.85824 10.8501 7.6749C11.1584 7.46657 11.2584 7.3249 11.2584 7.10824C11.2584 6.69157 10.9167 6.3499 10.5001 6.3499C10.0834 6.3499 9.74175 6.69157 9.74175 7.10824C9.74175 7.4499 9.45842 7.73324 9.11675 7.73324C8.77508 7.73324 8.49175 7.4499 8.49175 7.10824C8.49175 5.9999 9.39175 5.0999 10.5001 5.0999C11.6084 5.0999 12.5084 5.9999 12.5084 7.10824C12.5084 8.05824 11.8084 8.53324 11.5501 8.70824Z" fill="#FF6600"/>
</svg>
