<svg xmlns="http://www.w3.org/2000/svg" width="22" height="22" viewBox="0 0 22 22" fill="none">
  <g clip-path="url(#clip0_15175_980)">
    <path d="M17.4581 4.05627L14.7804 4.12639L14.7103 1.44873L12.0326 1.51885L12.1028 4.1965L9.4251 4.26662L9.35498 1.58897L6.67733 1.65908L6.74745 4.33674L4.06979 4.40685L4.13991 7.08451L1.46226 7.15462L1.53237 9.83228L4.21003 9.76216L4.28014 12.4398L1.60249 12.5099L1.67261 15.1876L4.35026 15.1175L4.42038 17.7951L7.09803 17.725L7.16815 20.4027L9.8458 20.3325L9.77568 17.6549L12.4533 17.5848L12.5235 20.2624L15.2011 20.1923L15.131 17.5147L17.8086 17.4445L17.7385 14.7669L20.4162 14.6968L20.3461 12.0191L17.6684 12.0892L17.5983 9.41158L20.2759 9.34146L20.2058 6.66381L17.5282 6.73392L17.4581 4.05627ZM9.56533 9.62193L12.243 9.55181L12.3131 12.2295L9.63545 12.2996L9.56533 9.62193Z" fill="#666666"/>
  </g>
  <defs>
    <clipPath id="clip0_15175_980">
      <rect width="20" height="20" fill="white" transform="translate(0.680908 1.19092) rotate(-1.5)"/>
    </clipPath>
  </defs>
</svg>