<svg xmlns="http://www.w3.org/2000/svg" width="22" height="22" viewBox="0 0 22 22" fill="none">
  <g clip-path="url(#clip0_15153_5979)">
    <path d="M17.7273 4.21801L15.0497 4.28813L14.9796 1.61048L12.3019 1.68059L12.372 4.35825L9.69439 4.42836L9.62427 1.75071L6.94662 1.82083L7.01673 4.49848L4.33908 4.5686L4.4092 7.24625L1.73154 7.31637L1.80166 9.99402L4.47931 9.9239L4.54943 12.6016L1.87178 12.6717L1.94189 15.3493L4.61955 15.2792L4.68966 17.9569L7.36732 17.8867L7.43743 20.5644L10.1151 20.4943L10.045 17.8166L12.7226 17.7465L12.7927 20.4242L15.4704 20.3541L15.4003 17.6764L18.0779 17.6063L18.0078 14.9286L20.6855 14.8585L20.6154 12.1809L17.9377 12.251L17.8676 9.57332L20.5452 9.5032L20.4751 6.82555L17.7975 6.89567L17.7273 4.21801ZM9.83462 9.78367L12.5123 9.71355L12.5824 12.3912L9.90474 12.4613L9.83462 9.78367Z" fill="url(#paint0_linear_15153_5979)"/>
  </g>
  <defs>
    <linearGradient id="paint0_linear_15153_5979" x1="1.83672" y1="11.3328" x2="20.5803" y2="10.842" gradientUnits="userSpaceOnUse">
      <stop stop-color="white" stop-opacity="0.5"/>
      <stop offset="0.5" stop-color="white"/>
      <stop offset="1" stop-color="white" stop-opacity="0.35"/>
    </linearGradient>
    <clipPath id="clip0_15153_5979">
      <rect width="20" height="20" fill="white" transform="translate(0.950195 1.35266) rotate(-1.5)"/>
    </clipPath>
  </defs>
</svg>