<svg xmlns="http://www.w3.org/2000/svg" width="20" height="20" viewBox="0 0 20 20" fill="none">
  <path d="M14.1214 2.37272C15.2952 1.79145 15.8821 1.50082 16.2787 1.7647C16.6753 2.02858 16.6189 2.67222 16.5062 3.95948L16.477 4.29251C16.4449 4.65831 16.4289 4.84121 16.4861 5.007C16.5434 5.17279 16.6674 5.3027 16.9154 5.56252L17.1411 5.79906C18.0138 6.71337 18.4502 7.17053 18.3063 7.63894C18.1625 8.10735 17.5337 8.2768 16.2763 8.61571L15.9509 8.70339C15.5936 8.7997 15.4149 8.84786 15.2724 8.9597C15.13 9.07155 15.0398 9.23442 14.8595 9.56018L14.6954 9.85675C14.0609 11.0031 13.7436 11.5763 13.2581 11.6019C12.7727 11.6275 12.4405 11.0886 11.776 10.0108L11.6042 9.73193C11.4153 9.42565 11.3209 9.27251 11.1757 9.17584C11.0304 9.07918 10.8507 9.04993 10.4913 8.99144L10.164 8.93819C8.89921 8.73236 8.2668 8.62944 8.11058 8.17686C7.95436 7.72428 8.3778 7.22176 9.22466 6.21673L9.44375 5.95672C9.68441 5.67112 9.80473 5.52832 9.85742 5.35673C9.91011 5.18514 9.88919 5.00419 9.84736 4.64229L9.80927 4.31281C9.66206 3.03926 9.58846 2.40248 9.9774 2.09716C10.3663 1.79183 10.9602 2.02016 12.148 2.47683L12.4553 2.59497C12.7929 2.72474 12.9616 2.78963 13.1395 2.78024C13.3173 2.77086 13.4841 2.68827 13.8177 2.5231L14.1214 2.37272Z" fill="#FF6600"/>
  <path d="M7.53718 9.43323C4.99215 11.0577 2.726 13.9969 1.74242 16.693C1.42329 17.5678 2.15899 18.3335 3.09731 18.3335H3.95841C3.95847 18.0411 4.02695 17.6779 4.12818 17.2966C4.23238 16.9042 4.38247 16.4521 4.56954 15.9676C4.94359 14.9989 5.47556 13.875 6.11359 12.804C6.74932 11.7367 7.50525 10.6968 8.33444 9.91561C8.35494 9.89629 8.37554 9.87709 8.39623 9.85801C8.37677 9.85208 8.35754 9.84607 8.33856 9.83997C8.10167 9.76374 7.80561 9.64242 7.53718 9.43323Z" fill="#FF6600"/>
  <path d="M10.0169 10.1807C9.75132 10.3432 9.47548 10.558 9.1916 10.8254C8.47748 11.4982 7.79016 12.432 7.18749 13.4437C6.58712 14.4515 6.08552 15.5118 5.73562 16.4179C5.56071 16.8709 5.42621 17.2789 5.33632 17.6174C5.24361 17.9666 5.20848 18.205 5.20841 18.3335H7.56928C7.56937 17.3968 7.89377 15.6621 8.48084 13.9237C8.91163 12.648 9.50819 11.2959 10.2769 10.223L10.0169 10.1807Z" fill="#FF6600"/>
  <path d="M11.082 11.2608C10.5189 12.1305 10.0395 13.2152 9.66513 14.3236C9.10023 15.9964 8.81938 17.5864 8.81928 18.3335H9.89327C10.8316 18.3335 11.587 17.5782 11.6495 16.65C11.7568 15.0548 12.0031 13.6172 12.2843 12.5948C12.0059 12.4313 11.7907 12.2164 11.6325 12.0306C11.45 11.8164 11.2664 11.5488 11.082 11.2608Z" fill="#FF6600"/>
</svg>