<svg xmlns="http://www.w3.org/2000/svg" width="21" height="20" viewBox="0 0 21 20" fill="none">
  <path fill-rule="evenodd" clip-rule="evenodd" d="M5.2289 7.1612C3.35983 7.799 2.16675 8.76893 2.16675 9.85516C2.16675 10.8618 3.1914 11.7686 4.82915 12.4037L3.71424 14.2618C3.53665 14.5578 3.63263 14.9417 3.92862 15.1193C4.2246 15.2969 4.60852 15.201 4.78611 14.905L6.03611 12.8216C6.04111 12.8133 6.04589 12.8049 6.05046 12.7964C7.17248 13.0927 8.47573 13.2803 9.87518 13.3236V15.8334C9.87518 16.1786 10.155 16.4584 10.5002 16.4584C10.8454 16.4584 11.1252 16.1786 11.1252 15.8334V13.3236C12.5246 13.2802 13.8279 13.0927 14.9499 12.7964C14.9544 12.8049 14.9592 12.8133 14.9642 12.8216L16.2142 14.905C16.3918 15.201 16.7757 15.2969 17.0717 15.1193C17.3677 14.9417 17.4637 14.5578 17.2861 14.2618L16.1712 12.4036C17.8088 11.7685 18.8334 10.8618 18.8334 9.85516C18.8334 8.76893 17.6403 7.799 15.7713 7.1612C15.6674 7.40309 15.4948 7.64787 15.2141 7.84316C14.5572 8.30006 13.2512 8.74998 10.5001 8.74998C7.749 8.74998 6.443 8.30006 5.7861 7.84316C5.50532 7.64787 5.33273 7.40309 5.2289 7.1612ZM11.3334 10.8333C11.3334 11.2935 10.9603 11.6666 10.5001 11.6666C10.0398 11.6666 9.66675 11.2935 9.66675 10.8333C9.66675 10.3731 10.0398 9.99998 10.5001 9.99998C10.9603 9.99998 11.3334 10.3731 11.3334 10.8333ZM6.33342 10.8333C6.79365 10.8333 7.16675 10.4602 7.16675 9.99998C7.16675 9.53974 6.79365 9.16665 6.33342 9.16665C5.87318 9.16665 5.50008 9.53974 5.50008 9.99998C5.50008 10.4602 5.87318 10.8333 6.33342 10.8333ZM15.5001 9.99998C15.5001 10.4602 15.127 10.8333 14.6667 10.8333C14.2065 10.8333 13.8334 10.4602 13.8334 9.99998C13.8334 9.53974 14.2065 9.16665 14.6667 9.16665C15.127 9.16665 15.5001 9.53974 15.5001 9.99998Z" fill="#FF6600"/>
  <path d="M6.37923 6.67115C6.66938 4.78093 8.30266 3.33331 10.274 3.33331H10.7261C12.6975 3.33331 14.3308 4.78093 14.6209 6.67115C14.5944 6.72852 14.5551 6.77887 14.5003 6.81697C14.1552 7.05698 13.1583 7.49998 10.5001 7.49998C7.84188 7.49998 6.84492 7.05698 6.49984 6.81697C6.44506 6.77887 6.4058 6.72852 6.37923 6.67115Z" fill="#FF6600"/>
</svg>