<svg width="66" height="66" viewBox="0 0 66 66" fill="none" xmlns="http://www.w3.org/2000/svg">
<path d="M54.5211 11.4993H45.9066V2.88477H37.2921V11.4993H28.6776V2.88477H20.0631V11.4993H11.4486V20.1138H2.83411V28.7283H11.4486V37.3428H2.83411V45.9573H11.4486V54.5718H20.0631V63.1863H28.6776V54.5718H37.2921V63.1863H45.9066V54.5718H54.5211V45.9573H63.1356V37.3428H54.5211V28.7283H63.1356V20.1138H54.5211V11.4993ZM28.6776 28.7283H37.2921V37.3428H28.6776V28.7283Z" fill="#FF306E"/>
<path d="M54.9231 11.4993V11.0973H54.5211H46.3086V2.88477V2.48276H45.9066H37.2921H36.8901V2.88477V11.0973H29.0796V2.88477V2.48276H28.6776H20.0631H19.6611V2.88477V11.0973H11.4486H11.0466V11.4993V19.7118H2.83411H2.4321V20.1138V28.7283V29.1303H2.83411H11.0466V36.9408H2.83411H2.4321V37.3428V45.9573V46.3593H2.83411H11.0466V54.5718V54.9738H11.4486H19.6611V63.1863V63.5883H20.0631H28.6776H29.0796V63.1863V54.9738H36.8901V63.1863V63.5883H37.2921H45.9066H46.3086V63.1863V54.9738H54.5211H54.9231V54.5718V46.3593H63.1356H63.5376V45.9573V37.3428V36.9408H63.1356H54.9231V29.1303H63.1356H63.5376V28.7283V20.1138V19.7118H63.1356H54.9231V11.4993ZM29.0796 29.1303H36.8901V36.9408H29.0796V29.1303Z" stroke="#FF306E" stroke-opacity="0.12" stroke-width="0.80402"/>
</svg>
