<svg width="27" height="27" viewBox="0 0 27 27" fill="none" xmlns="http://www.w3.org/2000/svg">
<g filter="url(#filter0_b_15765_2110)">
<circle cx="13.3215" cy="13.5827" r="13.2663" fill="#F1D789" fill-opacity="0.2"/>
</g>
<g filter="url(#filter1_b_15765_2110)">
<circle cx="13.3213" cy="13.5826" r="11.3711" fill="#F1D789" fill-opacity="0.4"/>
</g>
<g filter="url(#filter2_i_15765_2110)">
<g filter="url(#filter3_i_15765_2110)">
<circle cx="13.3217" cy="13.5829" r="9.47595" fill="url(#paint0_linear_15765_2110)"/>
</g>
</g>
<g clip-path="url(#clip0_15765_2110)">
<g filter="url(#filter4_bdii_15765_2110)">
<path d="M17.1893 11.2715H16.7405C16.74 11.2715 16.7396 11.2717 16.7393 11.272C16.7389 11.2723 16.7388 11.2727 16.7388 11.2732V17.0001C16.7388 17.1601 16.8023 17.3134 16.9154 17.4265C17.0285 17.5396 17.1819 17.6031 17.3418 17.6031C17.5017 17.6031 17.6551 17.5396 17.7682 17.4265C17.8813 17.3134 17.9448 17.1601 17.9448 17.0001V12.0269C17.9448 11.8266 17.8652 11.6344 17.7235 11.4928C17.5819 11.3511 17.3897 11.2715 17.1893 11.2715Z" fill="#C85F09"/>
</g>
<g filter="url(#filter5_dii_15765_2110)">
<path d="M16.1356 16.9999V10.5174C16.1356 10.4185 16.1161 10.3204 16.0782 10.229C16.0403 10.1375 15.9848 10.0544 15.9148 9.98445C15.8448 9.91445 15.7617 9.85893 15.6703 9.82105C15.5788 9.78317 15.4808 9.76367 15.3818 9.76367H10.2562C10.0563 9.76367 9.86457 9.84309 9.72322 9.98445C9.58186 10.1258 9.50244 10.3175 9.50244 10.5174V17.1506C9.50244 17.4305 9.61362 17.6989 9.81152 17.8968C10.0094 18.0947 10.2778 18.2059 10.5577 18.2059H17.0185C17.0213 18.2059 17.0241 18.2054 17.0268 18.2043C17.0294 18.2032 17.0318 18.2016 17.0338 18.1996C17.0359 18.1976 17.0375 18.1952 17.0385 18.1925C17.0396 18.1899 17.0402 18.1871 17.0401 18.1842C17.0401 18.1795 17.0385 18.1749 17.0356 18.1711C17.0327 18.1674 17.0287 18.1647 17.0241 18.1635C16.7691 18.0935 16.544 17.9418 16.3835 17.7316C16.223 17.5214 16.1359 17.2643 16.1356 16.9999ZM10.7085 11.5727C10.7085 11.4928 10.7402 11.4161 10.7968 11.3595C10.8533 11.303 10.93 11.2712 11.01 11.2712H12.216C12.296 11.2712 12.3727 11.303 12.4292 11.3595C12.4858 11.4161 12.5175 11.4928 12.5175 11.5727V12.7787C12.5175 12.8587 12.4858 12.9354 12.4292 12.9919C12.3727 13.0485 12.296 13.0803 12.216 13.0803H11.01C10.93 13.0803 10.8533 13.0485 10.7968 12.9919C10.7402 12.9354 10.7085 12.8587 10.7085 12.7787V11.5727ZM14.6281 16.6983H11.0185C10.8562 16.6983 10.717 16.5736 10.7088 16.4113C10.7069 16.3706 10.7132 16.3298 10.7275 16.2916C10.7417 16.2533 10.7636 16.2184 10.7917 16.1888C10.8199 16.1593 10.8537 16.1358 10.8913 16.1197C10.9288 16.1036 10.9692 16.0953 11.01 16.0953H14.6196C14.7818 16.0953 14.9211 16.2201 14.9292 16.3823C14.9312 16.4231 14.9248 16.4638 14.9106 16.5021C14.8963 16.5403 14.8745 16.5753 14.8463 16.6048C14.8182 16.6344 14.7843 16.6579 14.7468 16.674C14.7093 16.6901 14.6689 16.6983 14.6281 16.6983ZM14.6281 15.4923H11.0185C10.8562 15.4923 10.717 15.3676 10.7088 15.2053C10.7069 15.1646 10.7132 15.1238 10.7275 15.0856C10.7417 15.0473 10.7636 15.0124 10.7917 14.9828C10.8199 14.9533 10.8537 14.9297 10.8913 14.9137C10.9288 14.8976 10.9692 14.8893 11.01 14.8893H14.6196C14.7818 14.8893 14.9211 15.014 14.9292 15.1763C14.9312 15.2171 14.9248 15.2578 14.9106 15.2961C14.8963 15.3343 14.8745 15.3693 14.8463 15.3988C14.8182 15.4284 14.7843 15.4519 14.7468 15.4679C14.7093 15.484 14.6689 15.4923 14.6281 15.4923ZM14.6281 14.2863H11.0185C10.8562 14.2863 10.717 14.1615 10.7088 13.9993C10.7069 13.9585 10.7132 13.9178 10.7275 13.8795C10.7417 13.8413 10.7636 13.8063 10.7917 13.7768C10.8199 13.7472 10.8537 13.7237 10.8913 13.7076C10.9288 13.6916 10.9692 13.6833 11.01 13.6833H14.6196C14.7818 13.6833 14.9211 13.808 14.9292 13.9703C14.9312 14.011 14.9248 14.0518 14.9106 14.09C14.8963 14.1283 14.8745 14.1632 14.8463 14.1928C14.8182 14.2223 14.7843 14.2458 14.7468 14.2619C14.7093 14.278 14.6689 14.2863 14.6281 14.2863ZM14.6281 13.0803H13.4305C13.2683 13.0803 13.129 12.9555 13.1209 12.7933C13.1189 12.7525 13.1253 12.7117 13.1395 12.6735C13.1538 12.6353 13.1756 12.6003 13.2038 12.5708C13.2319 12.5412 13.2658 12.5177 13.3033 12.5016C13.3408 12.4855 13.3812 12.4772 13.422 12.4772H14.6196C14.7818 12.4772 14.9211 12.602 14.9292 12.7642C14.9312 12.805 14.9248 12.8457 14.9106 12.884C14.8963 12.9222 14.8745 12.9572 14.8463 12.9867C14.8182 13.0163 14.7843 13.0398 14.7468 13.0559C14.7093 13.072 14.6689 13.0803 14.6281 13.0803ZM14.6281 11.8742H13.4305C13.2683 11.8742 13.129 11.7495 13.1209 11.5872C13.1189 11.5465 13.1253 11.5057 13.1395 11.4675C13.1538 11.4292 13.1756 11.3943 13.2038 11.3647C13.2319 11.3352 13.2658 11.3117 13.3033 11.2956C13.3408 11.2795 13.3812 11.2712 13.422 11.2712H14.6196C14.7818 11.2712 14.9211 11.396 14.9292 11.5582C14.9312 11.599 14.9248 11.6397 14.9106 11.678C14.8963 11.7162 14.8745 11.7512 14.8463 11.7807C14.8182 11.8103 14.7843 11.8338 14.7468 11.8499C14.7093 11.8659 14.6689 11.8742 14.6281 11.8742Z" fill="#C85F09"/>
</g>
</g>
<defs>
<filter id="filter0_b_15765_2110" x="-20.7919" y="-20.5307" width="68.2269" height="68.2269" filterUnits="userSpaceOnUse" color-interpolation-filters="sRGB">
<feFlood flood-opacity="0" result="BackgroundImageFix"/>
<feGaussianBlur in="BackgroundImageFix" stdDeviation="10.4235"/>
<feComposite in2="SourceAlpha" operator="in" result="effect1_backgroundBlur_15765_2110"/>
<feBlend mode="normal" in="SourceGraphic" in2="effect1_backgroundBlur_15765_2110" result="shape"/>
</filter>
<filter id="filter1_b_15765_2110" x="-5.63057" y="-5.36934" width="37.9037" height="37.9037" filterUnits="userSpaceOnUse" color-interpolation-filters="sRGB">
<feFlood flood-opacity="0" result="BackgroundImageFix"/>
<feGaussianBlur in="BackgroundImageFix" stdDeviation="3.79038"/>
<feComposite in2="SourceAlpha" operator="in" result="effect1_backgroundBlur_15765_2110"/>
<feBlend mode="normal" in="SourceGraphic" in2="effect1_backgroundBlur_15765_2110" result="shape"/>
</filter>
<filter id="filter2_i_15765_2110" x="1.95051" y="2.21174" width="20.8469" height="20.8469" filterUnits="userSpaceOnUse" color-interpolation-filters="sRGB">
<feFlood flood-opacity="0" result="BackgroundImageFix"/>
<feBlend mode="normal" in="SourceGraphic" in2="BackgroundImageFix" result="shape"/>
<feColorMatrix in="SourceAlpha" type="matrix" values="0 0 0 0 0 0 0 0 0 0 0 0 0 0 0 0 0 0 127 0" result="hardAlpha"/>
<feOffset dx="-1.89519" dy="-1.89519"/>
<feGaussianBlur stdDeviation="1.89519"/>
<feComposite in2="hardAlpha" operator="arithmetic" k2="-1" k3="1"/>
<feColorMatrix type="matrix" values="0 0 0 0 0.925 0 0 0 0 0.925 0 0 0 0 0.925 0 0 0 0.25 0"/>
<feBlend mode="normal" in2="shape" result="effect1_innerShadow_15765_2110"/>
</filter>
<filter id="filter3_i_15765_2110" x="3.8457" y="4.10693" width="18.9517" height="18.9517" filterUnits="userSpaceOnUse" color-interpolation-filters="sRGB">
<feFlood flood-opacity="0" result="BackgroundImageFix"/>
<feBlend mode="normal" in="SourceGraphic" in2="BackgroundImageFix" result="shape"/>
<feColorMatrix in="SourceAlpha" type="matrix" values="0 0 0 0 0 0 0 0 0 0 0 0 0 0 0 0 0 0 127 0" result="hardAlpha"/>
<feOffset/>
<feGaussianBlur stdDeviation="1.89519"/>
<feComposite in2="hardAlpha" operator="arithmetic" k2="-1" k3="1"/>
<feColorMatrix type="matrix" values="0 0 0 0 1 0 0 0 0 1 0 0 0 0 1 0 0 0 0.25 0"/>
<feBlend mode="normal" in2="shape" result="effect1_innerShadow_15765_2110"/>
</filter>
<filter id="filter4_bdii_15765_2110" x="8.12427" y="2.65698" width="18.4351" height="32.175" filterUnits="userSpaceOnUse" color-interpolation-filters="sRGB">
<feFlood flood-opacity="0" result="BackgroundImageFix"/>
<feGaussianBlur in="BackgroundImageFix" stdDeviation="4.30725"/>
<feComposite in2="SourceAlpha" operator="in" result="effect1_backgroundBlur_15765_2110"/>
<feColorMatrix in="SourceAlpha" type="matrix" values="0 0 0 0 0 0 0 0 0 0 0 0 0 0 0 0 0 0 127 0" result="hardAlpha"/>
<feOffset dy="8.6145"/>
<feGaussianBlur stdDeviation="4.30725"/>
<feComposite in2="hardAlpha" operator="out"/>
<feColorMatrix type="matrix" values="0 0 0 0 0.933333 0 0 0 0 0.933333 0 0 0 0 0.933333 0 0 0 0.25 0"/>
<feBlend mode="normal" in2="effect1_backgroundBlur_15765_2110" result="effect2_dropShadow_15765_2110"/>
<feBlend mode="normal" in="SourceGraphic" in2="effect2_dropShadow_15765_2110" result="shape"/>
<feColorMatrix in="SourceAlpha" type="matrix" values="0 0 0 0 0 0 0 0 0 0 0 0 0 0 0 0 0 0 127 0" result="hardAlpha"/>
<feOffset/>
<feGaussianBlur stdDeviation="0.40201"/>
<feComposite in2="hardAlpha" operator="arithmetic" k2="-1" k3="1"/>
<feColorMatrix type="matrix" values="0 0 0 0 0.254489 0 0 0 0 0.269535 0 0 0 0 0.0438452 0 0 0 0.32 0"/>
<feBlend mode="normal" in2="shape" result="effect3_innerShadow_15765_2110"/>
<feColorMatrix in="SourceAlpha" type="matrix" values="0 0 0 0 0 0 0 0 0 0 0 0 0 0 0 0 0 0 127 0" result="hardAlpha"/>
<feOffset dy="0.80402"/>
<feGaussianBlur stdDeviation="1.60804"/>
<feComposite in2="hardAlpha" operator="arithmetic" k2="-1" k3="1"/>
<feColorMatrix type="matrix" values="0 0 0 0 0.337255 0 0 0 0 0.21281 0 0 0 0 0.117647 0 0 0 0.24 0"/>
<feBlend mode="normal" in2="effect3_innerShadow_15765_2110" result="effect4_innerShadow_15765_2110"/>
</filter>
<filter id="filter5_dii_15765_2110" x="0.88794" y="9.76367" width="24.7666" height="25.6714" filterUnits="userSpaceOnUse" color-interpolation-filters="sRGB">
<feFlood flood-opacity="0" result="BackgroundImageFix"/>
<feColorMatrix in="SourceAlpha" type="matrix" values="0 0 0 0 0 0 0 0 0 0 0 0 0 0 0 0 0 0 127 0" result="hardAlpha"/>
<feOffset dy="8.6145"/>
<feGaussianBlur stdDeviation="4.30725"/>
<feComposite in2="hardAlpha" operator="out"/>
<feColorMatrix type="matrix" values="0 0 0 0 0.933333 0 0 0 0 0.933333 0 0 0 0 0.933333 0 0 0 0.25 0"/>
<feBlend mode="normal" in2="BackgroundImageFix" result="effect1_dropShadow_15765_2110"/>
<feBlend mode="normal" in="SourceGraphic" in2="effect1_dropShadow_15765_2110" result="shape"/>
<feColorMatrix in="SourceAlpha" type="matrix" values="0 0 0 0 0 0 0 0 0 0 0 0 0 0 0 0 0 0 127 0" result="hardAlpha"/>
<feOffset/>
<feGaussianBlur stdDeviation="0.40201"/>
<feComposite in2="hardAlpha" operator="arithmetic" k2="-1" k3="1"/>
<feColorMatrix type="matrix" values="0 0 0 0 0.254489 0 0 0 0 0.269535 0 0 0 0 0.0438452 0 0 0 0.32 0"/>
<feBlend mode="normal" in2="shape" result="effect2_innerShadow_15765_2110"/>
<feColorMatrix in="SourceAlpha" type="matrix" values="0 0 0 0 0 0 0 0 0 0 0 0 0 0 0 0 0 0 127 0" result="hardAlpha"/>
<feOffset dy="0.80402"/>
<feGaussianBlur stdDeviation="1.60804"/>
<feComposite in2="hardAlpha" operator="arithmetic" k2="-1" k3="1"/>
<feColorMatrix type="matrix" values="0 0 0 0 0.337255 0 0 0 0 0.21281 0 0 0 0 0.117647 0 0 0 0.24 0"/>
<feBlend mode="normal" in2="effect2_innerShadow_15765_2110" result="effect3_innerShadow_15765_2110"/>
</filter>
<linearGradient id="paint0_linear_15765_2110" x1="7.63608" y1="6.00212" x2="16.1644" y2="22.585" gradientUnits="userSpaceOnUse">
<stop stop-color="#F7DBA3"/>
<stop offset="0.343145" stop-color="#F2B738"/>
<stop offset="0.656627" stop-color="#E97D25"/>
<stop offset="1" stop-color="#C85F09"/>
</linearGradient>
<clipPath id="clip0_15765_2110">
<rect width="9.64824" height="9.64824" fill="white" transform="translate(8.89941 9.16064)"/>
</clipPath>
</defs>
</svg>
